<svg xmlns="http://www.w3.org/2000/svg" viewBox="0 0 3200 3200"><circle cx="1600" cy="1600" r="1600" fill="#a8baa2"/><g transform="translate(546 268) scale(.9)"><g transform="scale(4)"><g transform="translate(0.000000,740.000000) scale(0.100000,-0.100000)" fill="#e4f4e7" fill-opacity=".44"><path d="M3236 7389 c-27 -4 -89 -28 -137 -54 -96 -49 -175 -59 -292 -37 -58 12 -121 1 -184 -32 -126 -64 -201 -228 -165 -359 9 -31 8 -38 -2 -34 -209 80 -339 55 -431 -83 -54 -81 -105 -116 -188 -130 -73 -12 -106 -30 -153 -83 -88 -99 -91 -273 -9 -382 28 -35 149 -100 208 -111 54 -9 53 -17 -9 -48 -167 -85 -254 -198 -254 -330 0 -87 27 -144 92 -196 68 -54 109 -63 248 -56 170 10 186 9 232 -16 37 -19 58 -23 148 -23 118 0 168 17 238 81 45 41 48 39 56 -38 7 -70 36 -120 93 -164 42 -32 75 -39 173 -39 77 1 156 32 215 85 22 20 85 53 90 48 5 -4 17 -185 21 -308 9 -276 -2 -651 -26 -879 -1 -19 -21 27 -41 94 -13 44 -38 106 -56 138 -18 33 -33 61 -33 64 0 2 -20 31 -45 63 -136 177 -479 400 -533 347 -14 -15 -13 -20 12 -64 76 -133 161 -329 236 -543 71 -203 101 -280 124 -325 14 -27 26 -56 26 -63 0 -8 8 -26 19 -40 19 -28 136 -269 164 -337 24 -62 28 -93 18 -133 -6 -20 -15 -73 -20 -117 -6 -44 -19 -138 -30 -210 -12 -71 -26 -161 -31 -200 -6 -38 -12 -77 -15 -85 -2 -8 -7 -51 -9 -95 -5 -67 -23 -170 -33 -184 -2 -2 -11 4 -20 15 -92 99 -348 194 -407 151 -19 -14 -19 -15 2 -49 12 -20 30 -42 39 -49 30 -25 122 -174 154 -249 17 -41 37 -83 44 -95 7 -11 20 -45 29 -75 10 -30 23 -66 31 -80 7 -14 18 -54 25 -90 6 -36 17 -87 25 -115 34 -130 58 -538 29 -515 -6 6 -15 34 -18 62 -4 29 -27 113 -52 187 -24 73 -44 138 -44 144 0 6 -20 50 -45 98 -25 48 -45 93 -45 101 0 8 -11 29 -24 47 -14 19 -28 46 -31 62 -4 16 -11 29 -16 29 -5 0 -13 8 -16 18 -9 24 -132 222 -154 247 -20 23 -77 136 -83 162 -1 10 -6 25 -9 33 -11 25 -55 171 -74 245 -13 52 -18 106 -18 210 0 135 2 144 37 250 21 61 45 144 53 185 10 48 24 84 39 100 102 111 146 227 146 387 0 139 -95 377 -212 528 -31 40 -178 196 -204 218 -48 38 -71 -2 -49 -86 17 -66 20 -258 5 -323 -22 -97 -35 -361 -19 -394 4 -8 15 -35 24 -60 27 -73 82 -156 142 -212 30 -29 58 -61 62 -72 10 -26 -14 -144 -44 -219 -65 -163 -65 -457 -1 -632 7 -18 6 -18 -11 2 -38 46 -81 110 -108 160 -15 29 -35 60 -44 71 -9 10 -27 38 -40 63 -13 24 -34 60 -47 80 -37 54 -115 204 -155 294 -19 43 -79 229 -77 239 0 6 -2 18 -5 26 -8 21 -28 144 -34 215 -3 33 -10 65 -15 70 -12 12 -3 -87 19 -225 40 -252 155 -497 425 -907 66 -101 124 -181 128 -178 4 3 -1 32 -11 66 -79 254 -78 421 4 684 60 192 62 180 -31 271 -163 162 -194 286 -151 616 22 167 21 272 -3 381 -18 88 1 83 108 -26 339 -347 421 -755 202 -1002 -36 -41 -46 -62 -57 -114 -7 -35 -28 -112 -46 -172 -19 -60 -40 -139 -46 -176 -34 -195 59 -572 193 -778 216 -333 362 -652 413 -900 12 -59 23 -87 41 -105 l26 -25 -5 215 c-5 247 -28 385 -97 593 -66 196 -192 430 -274 506 -58 54 -15 65 118 31 125 -32 231 -103 273 -183 8 -16 17 -26 20 -24 3 3 18 108 33 234 16 125 38 287 50 358 78 497 85 432 -74 750 -89 177 -136 288 -206 484 -103 286 -160 420 -225 533 -68 117 -59 123 81 54 211 -104 377 -263 473 -453 36 -72 81 -221 81 -269 0 -39 17 -55 25 -22 43 194 52 1254 11 1296 -6 5 -83 -32 -124 -60 -220 -152 -430 -80 -449 153 -3 38 -8 69 -10 69 -2 0 -23 -19 -46 -41 -100 -98 -254 -130 -377 -78 -50 21 -70 23 -230 24 -193 0 -222 8 -281 72 -140 151 -49 362 211 487 36 17 67 32 69 33 11 7 -12 15 -73 28 -224 47 -329 224 -247 411 38 86 85 120 196 143 84 18 119 43 181 127 104 141 233 165 407 78 58 -30 62 -28 42 19 -26 62 -20 162 14 232 64 133 172 190 326 174 144 -16 178 -12 259 31 144 75 234 86 328 39 132 -66 207 -223 178 -372 -14 -72 -11 -76 32 -44 84 65 219 91 312 62 108 -34 163 -105 190 -249 20 -103 41 -129 162 -196 160 -90 217 -164 218 -285 1 -135 -105 -257 -273 -316 l-45 -16 -1 -80 c-2 -194 -160 -362 -402 -423 -91 -24 -197 -28 -387 -16 l-139 9 7 -94 c3 -52 9 -156 13 -231 3 -76 9 -138 12 -137 3 0 28 34 55 75 53 83 117 139 236 208 62 35 176 86 195 86 23 0 -39 -173 -108 -300 -58 -107 -124 -203 -203 -294 -187 -214 -188 -216 -209 -466 -21 -263 -46 -459 -101 -808 -23 -149 -27 -218 -9 -167 129 371 335 708 549 899 106 96 111 93 65 -40 -16 -49 -61 -208 -99 -354 -119 -457 -191 -621 -385 -879 -170 -225 -203 -281 -248 -426 -42 -134 -75 -669 -62 -995 l8 -180 27 0 c45 0 57 25 69 150 45 432 166 747 514 1330 265 443 308 566 367 1045 47 375 83 521 178 710 89 179 199 325 344 459 l80 73 -25 49 c-124 244 -56 496 221 826 190 225 290 260 402 140 50 -53 63 -61 113 -71 32 -7 74 -25 99 -43 24 -18 81 -47 127 -65 119 -47 161 -92 161 -175 0 -18 14 -62 30 -96 42 -89 41 -140 -5 -217 -31 -51 -35 -63 -29 -105 15 -114 -136 -290 -335 -390 -228 -114 -518 -87 -681 66 -26 24 -54 44 -62 44 -26 0 -240 -230 -306 -329 -154 -230 -220 -424 -262 -766 -11 -93 -22 -182 -25 -197 -7 -43 7 -34 59 37 93 127 262 246 386 270 54 11 67 22 81 62 38 118 137 267 220 333 109 86 206 115 438 130 261 18 370 44 502 120 69 41 89 48 89 31 0 -13 -225 -350 -284 -426 -258 -331 -518 -417 -892 -295 l-91 30 -69 -21 c-253 -78 -414 -263 -489 -561 -54 -217 -122 -367 -294 -650 -334 -551 -457 -852 -516 -1263 -19 -133 -19 -166 0 -159 10 4 15 20 15 51 0 64 36 231 69 321 131 360 423 678 839 915 66 37 72 44 72 73 0 46 44 214 70 265 95 188 239 307 530 437 224 101 334 176 378 257 24 46 33 1 17 -91 -106 -615 -387 -915 -872 -930 l-122 -3 -103 -62 c-439 -260 -730 -616 -813 -996 -46 -213 -47 -210 46 -169 l53 23 12 74 c45 264 243 438 585 513 24 5 27 12 33 65 17 148 90 220 303 302 145 55 158 57 175 28 7 -11 37 -32 66 -47 63 -31 93 -59 140 -132 19 -30 61 -82 94 -116 71 -74 71 -87 3 -131 -62 -40 -115 -99 -115 -128 0 -25 -45 -98 -95 -154 -44 -49 -75 -56 -168 -41 -206 33 -331 121 -384 271 -21 58 -36 61 -147 29 -257 -73 -426 -249 -460 -476 l-6 -41 41 -6 c54 -7 94 -46 109 -105 27 -109 33 -126 61 -172 31 -50 37 -100 20 -173 -11 -45 -32 -63 -81 -71 -32 -5 -63 -2 -190 21 l-34 6 39 -54 c21 -30 65 -92 98 -138 l59 -85 -16 -33 c-15 -31 -15 -36 0 -66 31 -61 103 -154 158 -205 56 -50 68 -72 42 -72 -19 0 -160 150 -197 210 -17 27 -34 50 -37 50 -4 0 -27 -38 -52 -85 -25 -47 -49 -84 -55 -82 -5 1 -33 49 -62 107 -63 127 -78 138 -69 49 22 -203 78 -354 171 -459 47 -53 55 -70 31 -70 -24 0 -103 101 -145 187 -54 106 -81 225 -90 392 -7 122 -10 142 -36 191 l-28 55 -10 -29 c-29 -85 35 -556 100 -734 11 -32 12 -47 4 -55 -15 -15 -45 57 -76 184 -50 210 -58 275 -61 509 -3 212 -12 280 -35 280 -5 0 -9 -196 -8 -435 0 -240 -3 -476 -7 -525 -5 -65 -4 -90 5 -90 8 0 12 46 13 153 1 83 3 170 4 192 1 22 2 80 3 129 1 90 18 114 22 31 1 -22 12 -85 25 -141 13 -55 26 -120 30 -145 8 -49 58 -169 71 -169 5 0 18 6 28 14 18 13 18 15 -3 72 -36 102 -54 177 -48 206 3 15 2 28 -2 28 -7 0 -40 175 -41 215 0 11 -3 71 -7 133 -4 61 -4 112 -1 112 23 0 41 -72 42 -175 4 -213 64 -404 166 -527 21 -26 39 -51 39 -56 0 -13 56 -26 70 -17 13 8 13 55 0 55 -10 0 -113 134 -112 147 0 4 -5 15 -12 23 -7 8 -23 43 -35 77 -22 60 -25 73 -36 178 l-6 50 37 -77 c50 -106 86 -114 121 -26 8 21 19 38 23 38 4 0 11 12 14 26 8 32 25 27 48 -15 10 -18 28 -42 41 -55 12 -12 38 -40 58 -63 58 -64 101 -93 122 -82 30 18 19 40 -70 133 -49 51 -101 116 -117 145 l-28 53 19 26 c25 34 28 28 -125 238 -39 53 -37 60 13 44 59 -19 147 -17 185 6 66 38 77 176 21 260 -17 26 -33 69 -39 103 -20 110 -67 173 -133 175 -29 1 -30 3 -24 31 4 17 10 46 15 65 24 117 138 253 267 322 43 23 89 47 103 55 14 7 35 13 48 13 13 0 31 4 40 9 9 4 34 11 55 14 33 5 37 3 37 -16 0 -62 71 -156 172 -229 83 -61 315 -99 376 -62 36 21 118 130 136 181 23 65 43 90 102 123 70 39 84 67 59 114 -10 19 -29 39 -42 45 -12 6 -43 39 -67 73 -25 35 -59 82 -76 106 -20 28 -51 52 -90 72 -33 17 -60 35 -60 40 0 5 -11 17 -25 26 -28 18 -82 9 -153 -28 -20 -10 -44 -18 -54 -18 -10 0 -26 -4 -36 -9 -9 -5 -30 -15 -47 -22 -124 -57 -205 -171 -207 -290 0 -39 -2 -41 -29 -37 -16 3 -29 2 -29 -2 0 -4 -24 -12 -54 -19 -30 -7 -77 -23 -105 -37 -28 -13 -56 -24 -61 -24 -24 0 -170 -118 -215 -174 -60 -75 -123 -210 -129 -273 -2 -27 -4 -54 -5 -60 -1 -7 -11 -13 -24 -13 -12 0 -33 -7 -45 -16 -20 -14 -26 -12 -23 8 0 3 3 32 5 64 5 57 43 192 77 269 9 22 26 60 36 85 23 53 103 180 130 206 11 11 33 37 48 59 34 47 145 165 154 163 3 -1 39 31 80 70 40 40 78 72 83 72 6 0 29 16 51 36 22 20 59 45 83 56 24 10 44 23 44 27 0 5 35 27 78 49 76 40 78 40 188 41 81 0 135 6 195 22 46 11 91 22 99 23 8 1 33 14 55 28 22 14 58 34 80 45 68 35 252 226 266 277 9 31 47 104 59 111 5 3 10 14 10 23 0 10 9 35 20 57 11 21 29 77 40 124 11 47 27 111 34 141 49 191 24 279 -48 170 -13 -21 -44 -53 -68 -73 -44 -35 -209 -127 -229 -127 -6 0 -51 -20 -100 -45 -49 -25 -93 -45 -99 -45 -5 0 -38 -20 -73 -45 -36 -25 -68 -45 -72 -45 -3 0 -38 -28 -76 -62 -72 -65 -155 -181 -185 -258 -9 -25 -21 -50 -26 -56 -11 -15 -17 -44 -25 -124 -6 -67 -17 -100 -33 -100 -5 0 -29 -13 -53 -30 -25 -16 -52 -30 -61 -30 -9 0 -16 -3 -16 -8 0 -4 -12 -13 -27 -19 -16 -7 -41 -24 -57 -38 -16 -14 -32 -25 -37 -25 -17 0 -197 -157 -291 -252 -152 -156 -243 -292 -319 -478 -25 -61 -45 -90 -35 -50 13 47 68 225 77 245 5 11 19 49 32 85 40 107 187 399 212 420 8 7 15 18 15 26 0 14 59 126 70 134 4 3 15 20 24 38 10 19 40 67 67 107 27 40 49 76 49 80 0 3 13 25 29 48 15 23 33 58 40 78 6 20 26 60 44 90 18 30 33 64 34 77 1 12 9 37 18 55 15 30 55 175 76 277 8 37 79 173 100 190 3 3 10 12 15 21 79 141 363 304 445 258 13 -8 44 -19 69 -26 25 -6 63 -16 85 -22 91 -25 274 -25 355 -1 98 29 220 91 272 138 73 66 247 268 260 302 5 15 108 172 191 293 6 10 12 22 11 27 -1 6 -2 17 -2 25 -3 24 -32 18 -101 -24 -36 -21 -91 -46 -121 -55 -30 -9 -64 -22 -75 -28 -21 -12 -214 -38 -315 -43 -126 -7 -223 -17 -239 -25 -9 -5 -51 -24 -93 -42 -94 -40 -186 -125 -247 -227 -23 -38 -41 -72 -41 -75 0 -3 -14 -34 -31 -69 l-31 -65 -76 -27 c-150 -54 -221 -99 -324 -208 -32 -33 -60 -58 -64 -54 -3 3 -1 43 6 89 6 46 18 131 25 190 8 59 19 116 24 127 6 11 11 29 11 40 0 17 30 102 69 196 34 81 108 218 123 226 10 5 18 16 18 24 0 8 4 15 9 15 5 0 11 10 15 23 3 12 26 45 52 72 25 28 53 60 61 73 8 12 20 22 27 22 6 1 25 18 41 40 17 21 43 48 58 60 l28 21 47 -39 c160 -134 349 -173 567 -116 186 48 326 145 429 297 49 73 49 73 46 159 -1 38 3 59 12 65 7 4 24 29 37 56 29 58 25 134 -12 205 -13 26 -29 76 -35 111 -16 91 -38 115 -158 166 -56 24 -120 57 -143 73 -23 17 -57 34 -74 37 -74 15 -95 27 -122 66 -29 44 -90 78 -140 79 -59 0 -127 -44 -222 -141 -320 -328 -428 -654 -299 -907 l27 -53 -78 -74 c-43 -41 -81 -75 -85 -75 -4 0 -26 -26 -49 -57 -23 -32 -54 -71 -69 -88 -15 -16 -36 -45 -46 -64 -10 -19 -34 -57 -51 -85 -18 -28 -33 -54 -33 -58 0 -4 -13 -36 -28 -70 -31 -68 -74 -182 -90 -238 -20 -69 -82 -489 -82 -557 0 -21 -6 -58 -14 -83 -7 -25 -16 -74 -20 -109 -14 -131 -146 -454 -247 -601 -21 -31 -39 -61 -39 -66 0 -5 -20 -38 -45 -73 -25 -36 -45 -70 -45 -76 0 -6 -9 -21 -19 -32 -11 -11 -35 -51 -53 -89 -19 -38 -65 -130 -104 -206 -90 -178 -108 -216 -145 -318 -38 -104 -89 -279 -89 -303 0 -10 -9 -57 -19 -105 -11 -48 -24 -133 -29 -189 -6 -77 -13 -108 -27 -123 -34 -37 -40 -19 -42 126 -2 76 -3 144 -3 149 -4 57 13 494 20 540 5 33 8 67 7 75 -4 42 18 201 34 240 10 25 23 64 29 87 6 23 17 49 25 57 8 8 15 21 15 30 0 8 6 21 13 28 6 7 19 26 27 42 8 16 34 51 58 77 23 26 42 51 42 56 0 5 23 34 50 65 28 31 50 59 50 62 0 3 20 35 45 72 25 36 55 87 66 115 12 27 25 49 29 49 4 0 13 19 20 43 8 23 24 67 38 97 40 92 101 307 147 515 7 33 25 96 40 140 15 44 29 89 30 100 2 11 13 46 25 79 20 51 21 60 7 73 -13 13 -18 13 -48 -2 -49 -26 -259 -246 -259 -272 0 -5 -13 -22 -30 -38 -16 -16 -30 -32 -30 -37 0 -4 -26 -47 -57 -95 -60 -91 -132 -233 -174 -340 -13 -35 -27 -63 -31 -63 -8 0 -1 50 12 90 5 14 8 32 9 40 0 36 22 192 52 375 6 33 14 123 20 200 17 253 19 290 24 316 5 35 64 131 114 188 132 151 154 178 167 203 8 15 20 31 28 35 14 8 146 261 146 280 0 6 3 13 8 15 15 6 53 118 50 145 -3 26 -6 28 -47 26 -97 -4 -317 -144 -400 -255 -25 -32 -47 -56 -49 -53 -3 3 -7 42 -9 87 -2 46 -8 127 -14 181 -6 54 -9 100 -6 103 2 3 90 1 193 -3 104 -5 200 -6 214 -2 14 3 54 12 88 18 225 42 423 226 432 401 1 30 3 66 4 79 0 13 8 27 16 31 8 5 46 23 83 41 79 39 167 122 199 187 25 52 22 185 -6 243 -28 59 -99 122 -191 169 -111 57 -150 98 -159 171 -23 178 -129 291 -276 292 -76 1 -183 -25 -222 -53 -38 -28 -41 -26 -35 23 3 23 0 74 -7 112 -23 129 -78 204 -189 259 -74 37 -95 40 -181 25z m-229 -6771 c-2 -13 -4 -5 -4 17 -1 22 1 32 4 23 2 -10 2 -28 0 -40z M3229 7340 c-19 -5 -78 -30 -130 -55 l-94 -47 -141 7 c-166 8 -204 0 -271 -59 -64 -56 -93 -122 -93 -212 0 -108 23 -145 209 -331 162 -163 238 -256 291 -355 17 -32 35 -58 40 -58 17 0 35 148 33 275 -1 142 -16 233 -65 383 -27 86 -31 128 -7 92 70 -110 125 -513 89 -665 -19 -85 -25 -91 236 273 216 301 235 336 236 451 1 202 -157 345 -333 301z m167 -38 c143 -74 195 -264 113 -416 -18 -34 -358 -515 -383 -543 -8 -9 -11 29 -11 145 0 167 -13 251 -61 402 -31 99 -55 132 -80 108 -15 -15 -14 -22 15 -111 66 -196 88 -407 60 -550 -14 -66 -19 -69 -41 -24 -34 71 -149 209 -288 347 -176 173 -204 218 -203 322 0 58 5 75 34 123 60 99 123 132 244 126 205 -11 226 -9 296 28 145 77 218 87 305 43z M3740 6958 c-128 -45 -185 -100 -366 -355 -65 -92 -158 -221 -206 -286 -49 -64 -88 -122 -88 -127 0 -16 158 -12 250 6 154 29 274 87 398 192 70 59 96 63 41 6 -107 -112 -313 -212 -471 -230 -76 -8 -110 -19 -88 -28 56 -22 349 -122 414 -142 312 -95 607 -65 759 76 61 56 87 113 87 193 0 119 -55 189 -207 266 -117 58 -150 102 -173 231 -33 183 -171 261 -350 198z m183 -9 c21 -5 57 -29 81 -52 45 -43 54 -64 77 -186 17 -90 53 -132 165 -195 166 -93 210 -147 208 -256 -3 -179 -207 -304 -494 -303 -159 1 -303 36 -615 151 l-80 30 60 11 c157 31 313 104 421 196 65 56 80 80 63 101 -17 21 -19 20 -104 -50 -148 -124 -300 -185 -482 -193 -62 -3 -113 -3 -113 1 0 3 33 50 73 104 40 53 135 184 211 289 171 241 234 302 349 343 60 21 125 25 180 9z M2151 6848 c-27 -13 -56 -39 -75 -67 -79 -113 -115 -139 -237 -167 -114 -25 -159 -84 -176 -224 -22 -189 224 -322 490 -265 274 58 454 78 662 74 91 -2 165 -1 165 2 0 12 -98 70 -168 99 -88 38 -226 62 -326 58 -57 -2 -80 1 -83 10 -3 8 11 12 49 14 195 5 351 -32 481 -114 63 -40 67 -32 21 43 -86 143 -336 399 -478 491 -109 70 -239 89 -325 46z m249 -30 c84 -38 149 -87 283 -217 101 -98 217 -234 246 -289 l12 -23 -48 24 c-184 94 -538 123 -507 43 4 -10 41 -15 142 -19 101 -4 155 -11 207 -27 70 -22 185 -77 185 -89 0 -3 -62 -5 -137 -5 -174 2 -275 -8 -488 -49 -295 -56 -437 -41 -542 56 -65 60 -77 88 -70 169 11 126 61 183 186 212 90 20 142 55 198 133 90 127 183 150 333 81z M946 6180 c-24 -4 -48 -18 -60 -33 -19 -22 -30 -25 -111 -29 -110 -5 -132 -16 -222 -107 -37 -38 -90 -87 -116 -109 -62 -51 -77 -80 -87 -172 -4 -44 -18 -98 -33 -130 -14 -30 -28 -75 -32 -100 -4 -25 -14 -54 -21 -65 -17 -24 -18 -75 -2 -112 30 -67 156 -209 226 -255 101 -66 119 -77 152 -91 89 -37 147 -57 168 -57 12 0 53 -5 90 -12 113 -19 314 30 409 99 17 13 37 23 43 23 15 0 100 -80 100 -94 0 -7 14 -25 31 -42 36 -34 124 -203 132 -254 3 -19 13 -55 22 -79 22 -60 29 -140 27 -326 0 -88 -1 -221 -1 -295 l-1 -134 -61 84 c-34 47 -87 112 -119 145 -43 45 -60 72 -70 110 -35 131 -132 296 -231 391 -157 149 -265 202 -544 264 -137 31 -635 29 -635 -2 0 -6 7 -7 16 -4 33 13 362 18 466 7 480 -49 748 -232 889 -606 33 -87 51 -120 88 -160 75 -81 119 -138 171 -224 26 -45 51 -77 55 -71 3 5 3 15 -1 22 -4 7 -7 154 -6 328 3 338 -3 412 -45 545 -48 152 -121 271 -231 379 l-50 48 -34 -25 c-169 -127 -421 -148 -643 -54 -241 102 -459 351 -391 448 9 13 16 35 16 49 0 14 12 52 25 85 14 33 30 92 36 130 17 107 36 152 77 183 20 15 74 64 120 110 97 98 125 112 228 112 73 0 78 1 115 35 46 41 71 43 137 13 123 -57 324 -324 394 -524 28 -79 31 -102 32 -204 1 -122 -4 -147 -56 -262 l-31 -68 63 -67 c128 -137 212 -296 254 -483 19 -86 21 -122 19 -365 -1 -165 2 -264 7 -255 5 8 7 25 4 37 -3 12 -3 27 1 33 8 13 10 412 2 460 -41 248 -131 444 -262 570 -58 56 -70 77 -55 95 13 16 66 169 75 216 16 91 -9 240 -60 354 -64 145 -181 313 -295 423 -21 20 -134 84 -142 81 -2 -1 -21 -5 -42 -9z M2590 6163 c-599 -60 -920 -220 -920 -458 0 -93 49 -163 133 -191 42 -14 74 -16 191 -10 137 7 143 6 211 -20 85 -31 214 -31 275 1 85 45 161 136 216 262 36 82 141 235 219 321 37 40 65 75 62 78 -9 10 -130 -28 -214 -66 -107 -50 -162 -88 -255 -179 -82 -78 -113 -90 -58 -22 84 104 347 271 426 271 8 0 14 5 14 10 0 9 -215 12 -300 3z m153 -43 c-116 -53 -297 -197 -336 -265 -9 -16 7 -45 25 -45 5 0 49 38 98 84 96 91 195 156 293 191 119 43 117 45 45 -41 -79 -95 -141 -190 -196 -303 -84 -169 -165 -243 -287 -264 -58 -10 -69 -9 -151 18 -90 30 -106 32 -284 25 -119 -4 -169 11 -215 61 -135 150 -4 344 307 457 160 58 462 110 643 111 l120 0 -62 -29z M3050 6121 c0 -122 121 -267 273 -327 67 -27 92 -52 40 -40 -150 37 -278 158 -329 314 l-20 64 -60 -64 c-277 -298 -361 -604 -201 -732 76 -61 184 -49 323 36 126 76 142 79 393 72 200 -6 222 -5 301 15 242 61 380 203 380 392 l0 71 -62 -7 c-210 -25 -319 -4 -778 153 -267 92 -260 90 -260 53z m193 -47 c503 -173 566 -188 767 -182 l125 3 -1 -56 c-3 -155 -143 -300 -344 -358 -98 -28 -189 -34 -344 -22 -205 16 -253 8 -371 -65 -157 -97 -240 -104 -324 -29 -130 118 -46 403 197 665 l60 65 7 -30 c29 -117 129 -233 251 -292 89 -42 128 -47 132 -15 3 18 -5 26 -45 42 -93 39 -118 55 -173 110 -55 54 -95 122 -107 182 -6 31 -6 31 31 24 20 -4 82 -23 139 -42z M928 6129 c-10 -5 -27 -42 -39 -82 -12 -40 -40 -99 -62 -131 -39 -57 -39 -60 -34 -123 4 -41 1 -90 -8 -134 -54 -256 28 -411 266 -505 66 -26 206 -54 266 -54 l35 0 -7 68 c-20 190 -127 374 -277 479 -21 14 -38 30 -38 35 0 17 92 -56 160 -129 81 -85 134 -186 158 -303 19 -92 27 -99 36 -34 15 111 -5 220 -64 342 -21 45 -35 82 -30 82 31 0 119 -248 120 -340 1 -32 2 -33 13 -15 19 32 15 228 -7 300 -41 136 -152 317 -274 447 -87 92 -164 127 -214 97z m140 -54 c164 -127 353 -461 351 -619 l0 -51 -30 84 c-38 104 -73 161 -99 161 -27 0 -25 -20 9 -88 40 -79 71 -185 70 -241 l0 -46 -29 73 c-16 40 -41 94 -56 120 -54 91 -207 232 -253 232 -35 0 -25 -35 19 -65 154 -107 280 -328 280 -491 0 -78 -351 32 -457 143 -70 74 -98 174 -81 289 5 38 11 116 13 173 4 98 6 107 38 155 19 28 44 83 57 121 12 39 28 76 33 84 19 23 83 7 135 -34z M4949 6115 c-85 -44 -297 -298 -368 -441 -82 -165 -102 -309 -61 -447 13 -43 26 -77 30 -77 4 0 10 60 13 133 7 135 40 295 67 320 10 10 11 8 6 -8 -33 -89 -48 -182 -53 -321 -6 -167 0 -185 40 -126 42 60 56 105 77 242 31 202 76 296 160 338 52 26 88 15 155 -47 129 -119 215 -6 130 170 -39 82 -45 144 -19 194 15 29 15 30 -20 62 -44 41 -90 43 -157 8z m140 -16 c18 -17 21 -27 14 -48 -18 -57 -8 -137 26 -210 47 -102 41 -173 -16 -187 -25 -7 -35 -1 -107 59 -61 52 -109 59 -170 23 -79 -46 -123 -142 -150 -326 -18 -123 -39 -199 -65 -231 l-18 -23 -7 37 c-9 46 9 226 30 303 24 89 27 102 21 119 -24 60 -84 -106 -96 -264 -9 -122 -15 -131 -30 -49 -36 190 87 448 339 711 100 105 177 134 229 86z M696 6065 c-36 -12 -156 -119 -156 -137 0 -4 12 -8 26 -8 14 0 34 -5 45 -11 15 -8 25 -6 46 10 29 24 92 43 140 43 28 0 34 5 47 39 29 72 25 79 -46 79 -35 -1 -81 -7 -102 -15z m139 -32 c-10 -42 -21 -50 -74 -56 -27 -3 -68 -15 -90 -26 -40 -21 -91 -28 -91 -13 0 14 94 101 120 111 14 5 51 10 84 10 l58 1 -7 -27z M5146 6024 c-14 -37 -5 -102 24 -161 l29 -63 45 0 c60 0 108 -41 131 -110 15 -46 71 -110 95 -110 13 0 13 1 -6 39 -9 18 -23 76 -31 129 -24 166 -66 228 -169 253 -27 6 -61 18 -76 25 -34 17 -35 17 -42 -2z m101 -35 c101 -24 145 -88 168 -241 8 -51 15 -97 15 -103 0 -19 -28 21 -44 65 -29 74 -74 110 -138 110 -30 0 -36 5 -60 53 -47 91 -49 146 -5 132 12 -3 41 -11 64 -16z M5430 5912 c0 -41 36 -142 52 -148 70 -22 114 -105 102 -194 -6 -42 -3 -58 17 -95 31 -58 42 -57 69 6 25 59 22 96 -14 168 -13 26 -27 68 -31 95 -9 68 -20 92 -48 111 -32 21 -147 65 -147 57z m94 -51 c54 -24 72 -49 82 -116 4 -27 20 -81 36 -119 31 -72 32 -113 4 -151 -23 -32 -46 28 -46 122 0 89 -19 132 -71 161 -51 29 -57 36 -64 80 -8 48 -5 50 59 23z M483 5879 c-57 -28 -73 -56 -89 -162 -8 -49 -26 -116 -39 -147 -38 -91 -37 -114 5 -118 43 -4 110 15 110 31 -1 7 -7 23 -15 37 -22 39 -19 103 7 136 12 15 23 43 24 61 1 39 25 68 68 83 33 10 65 68 51 90 -10 17 -78 11 -122 -11z m97 -19 c0 -13 -12 -27 -32 -38 -45 -25 -67 -48 -73 -79 -3 -16 -17 -50 -32 -77 -25 -48 -28 -98 -8 -162 8 -24 -46 -50 -78 -38 -21 8 -22 4 7 77 29 73 42 123 51 193 11 90 62 143 138 144 21 0 27 -5 27 -20z M693 5801 c-10 -10 -30 -34 -45 -54 -20 -26 -45 -42 -88 -58 -93 -34 -122 -88 -85 -159 19 -37 22 -37 71 -1 48 36 107 52 156 45 33 -6 38 -4 42 17 35 160 32 229 -10 229 -13 0 -32 -8 -41 -19z m55 -36 c2 -17 -2 -63 -8 -102 l-13 -73 -56 0 c-54 0 -87 -11 -149 -50 -20 -13 -24 -13 -32 0 -31 48 4 112 71 130 54 15 96 46 124 90 31 49 58 51 63 5z M5208 5725 c-4 -43 -11 -62 -32 -84 -28 -29 -28 -29 -12 -75 9 -26 16 -58 16 -72 0 -38 25 -88 55 -112 34 -27 76 -28 192 -5 80 16 89 16 132 0 25 -9 47 -14 50 -12 18 19 -62 161 -97 171 -78 24 -134 75 -157 143 -22 67 -57 101 -105 101 l-38 0 -4 -55z m67 35 c19 -7 35 -30 60 -84 39 -86 61 -110 131 -142 56 -26 73 -43 98 -91 24 -47 21 -52 -21 -41 -29 7 -63 4 -138 -11 -150 -30 -184 -7 -218 149 -14 63 -14 65 9 92 13 16 26 49 30 76 10 68 9 67 49 52z M4841 5684 c-51 -43 -89 -136 -106 -265 -23 -166 -45 -231 -104 -308 -24 -32 -24 -34 -6 -47 47 -35 272 -32 366 5 113 43 216 138 248 228 13 35 12 37 -12 55 -40 29 -65 77 -76 147 -12 74 -20 85 -75 109 -22 10 -63 37 -89 60 -59 51 -99 55 -146 16z m115 -17 c59 -50 100 -77 118 -77 27 0 53 -40 60 -92 10 -70 32 -121 67 -152 l30 -27 -28 -50 c-83 -153 -309 -247 -501 -210 -61 12 -69 23 -43 60 44 61 69 136 86 251 27 190 59 269 128 310 41 25 36 26 83 -13z M615 5538 c-16 -6 -54 -28 -82 -50 -64 -49 -112 -67 -179 -68 -74 0 -78 -35 -16 -134 148 -237 499 -382 766 -318 96 23 95 38 -3 34 -129 -6 -257 33 -352 109 -60 47 -46 55 15 9 85 -64 164 -92 279 -98 145 -7 316 35 212 53 -315 52 -498 194 -513 396 -4 58 -7 68 -26 73 -30 8 -66 6 -101 -6z m107 -67 c23 -188 156 -321 385 -381 114 -31 111 -29 88 -43 -11 -6 -62 -11 -115 -11 -116 0 -213 31 -295 94 -53 41 -84 48 -93 22 -11 -34 175 -145 265 -157 89 -12 93 -24 8 -24 -245 -2 -529 161 -628 360 -30 60 -28 69 17 69 53 0 132 28 180 64 68 53 98 66 141 63 l40 -2 7 -54z M5410 5345 c-30 -8 -72 -14 -93 -15 -27 0 -39 -5 -44 -17 -59 -178 -249 -303 -465 -306 -78 -1 -87 -11 -25 -28 79 -21 220 -7 320 33 97 39 119 35 29 -5 -99 -45 -177 -60 -274 -54 -102 5 -110 -2 -30 -28 269 -88 619 50 763 300 37 63 36 78 -2 106 -39 28 -106 33 -179 14z m149 -20 c42 -21 45 -41 14 -94 -114 -195 -411 -345 -623 -315 -48 7 -34 22 22 23 46 2 186 51 215 76 25 21 26 25 13 39 -14 15 -19 14 -54 -4 -57 -29 -154 -57 -215 -64 -64 -6 -57 5 14 22 142 35 271 132 322 242 25 53 31 60 58 61 17 0 53 7 80 14 69 17 121 18 154 0z M3637 5245 c-238 -120 -328 -242 -352 -477 -9 -81 4 -89 30 -20 55 145 235 414 235 350 0 -8 -9 -23 -20 -33 -33 -30 -128 -179 -164 -256 -36 -77 -81 -217 -74 -225 6 -5 163 175 229 262 116 154 254 445 211 444 -4 0 -47 -20 -95 -45z M2620 4819 c0 -6 34 -47 75 -91 224 -241 371 -575 421 -956 9 -73 20 -129 24 -125 14 15 30 153 30 250 -1 342 -103 594 -313 775 -100 86 -237 171 -237 147z M2590 4792 c0 -7 14 -40 30 -73 44 -87 112 -255 185 -458 94 -263 119 -322 208 -491 95 -179 103 -176 72 31 -53 366 -203 693 -425 930 -38 41 -69 68 -70 61z M156 4772 c-23 -10 -17 -15 39 -32 316 -97 827 -360 1087 -558 77 -58 85 -56 57 17 -119 314 -355 493 -732 557 -104 17 -422 28 -451 16z M0 4763 c1 -5 33 -28 72 -53 113 -70 203 -147 405 -347 159 -156 301 -280 315 -274 1 1 35 -11 74 -27 98 -41 115 -44 282 -46 105 -2 154 2 172 11 41 21 55 16 111 -41 116 -118 193 -238 239 -376 12 -36 28 -72 36 -81 8 -8 14 -23 14 -32 0 -10 4 -25 9 -35 18 -34 61 -144 61 -155 0 -7 11 -32 24 -57 14 -25 39 -72 56 -105 33 -64 92 -165 153 -258 20 -31 37 -62 37 -67 0 -5 9 -17 19 -27 11 -10 21 -25 23 -33 2 -8 11 -21 20 -28 10 -7 18 -19 18 -27 0 -7 17 -35 38 -62 20 -26 44 -61 52 -78 12 -24 65 -100 97 -140 5 -5 17 -23 27 -40 11 -16 27 -38 36 -47 9 -10 23 -31 31 -46 8 -15 28 -47 45 -72 17 -25 43 -67 58 -93 14 -26 33 -58 41 -70 8 -12 21 -40 28 -62 8 -22 28 -62 45 -88 58 -92 206 -514 166 -474 -4 3 -25 64 -49 134 -45 140 -61 174 -153 338 -95 170 -209 310 -447 546 -205 204 -235 233 -270 255 -16 10 -37 26 -46 35 -15 15 -59 177 -59 216 0 53 -183 333 -218 333 -4 0 -20 12 -37 28 -52 47 -247 162 -275 162 -11 0 -149 61 -187 83 -102 58 -140 87 -186 138 -63 72 -88 75 -98 14 -4 -22 -3 -44 1 -50 4 -5 15 -53 24 -105 9 -52 28 -129 41 -170 14 -41 25 -80 25 -88 0 -7 18 -51 40 -98 22 -47 40 -87 40 -90 0 -13 99 -145 149 -199 60 -64 184 -152 241 -172 110 -37 170 -47 308 -48 l143 -2 56 -49 c30 -27 62 -53 70 -58 9 -5 100 -92 202 -195 173 -173 250 -260 310 -350 13 -20 27 -38 31 -41 69 -52 286 -520 240 -520 -16 0 -40 31 -40 51 0 96 -202 354 -343 438 -23 14 -48 31 -55 38 -7 7 -27 16 -45 21 -18 5 -63 21 -101 36 -37 14 -79 26 -92 26 -27 0 -39 19 -49 80 -20 121 -110 205 -303 281 -163 65 -150 63 -193 34 -21 -14 -51 -25 -66 -25 -78 0 -163 -84 -163 -160 0 -16 -9 -39 -19 -49 -42 -42 -48 -91 -17 -130 8 -10 2 -20 -24 -43 -76 -65 -80 -70 -80 -103 0 -45 40 -90 107 -122 62 -30 79 -51 89 -110 9 -61 12 -62 169 -53 148 9 295 43 316 72 3 5 27 23 54 41 48 32 119 144 127 200 4 26 57 27 105 2 15 -8 37 -15 49 -15 12 0 36 -10 55 -23 19 -12 51 -31 73 -42 51 -27 174 -132 210 -181 17 -21 33 -41 38 -44 4 -4 28 -46 53 -95 l45 -90 -39 -5 c-78 -12 -101 -39 -132 -157 -11 -42 -34 -102 -50 -134 -29 -56 -30 -62 -24 -135 11 -116 27 -127 168 -122 59 2 107 2 107 -1 0 -2 -15 -25 -34 -52 -134 -185 -137 -192 -114 -228 29 -47 -63 -185 -175 -262 -60 -41 -72 -82 -27 -87 32 -3 147 86 191 149 60 85 66 85 113 9 20 -32 41 -62 46 -65 11 -7 50 16 50 29 0 18 53 126 62 126 28 0 -46 -246 -102 -340 -21 -36 -48 -74 -60 -85 -45 -40 -62 -73 -50 -95 6 -11 16 -20 23 -20 26 0 167 168 167 199 0 6 13 39 29 73 38 81 61 198 65 329 2 70 8 114 18 134 l16 30 7 -48 c4 -27 5 -69 1 -95 -3 -26 -11 -90 -16 -142 -13 -116 -53 -311 -75 -364 -22 -51 -17 -101 10 -101 49 0 107 228 141 555 l8 75 7 -60 c4 -33 5 -130 3 -215 -6 -284 -7 -401 -1 -406 9 -10 18 418 15 731 -3 305 -3 309 -21 277 -15 -28 -19 -63 -21 -225 -5 -263 -33 -459 -92 -640 -16 -48 -31 -77 -40 -77 -18 0 -18 2 10 90 31 97 51 196 70 345 18 141 24 357 10 362 -26 9 -62 -121 -68 -242 -10 -219 -84 -412 -204 -528 -61 -59 -61 -27 -1 45 91 109 156 275 174 441 10 93 -3 86 -63 -38 -28 -58 -56 -105 -61 -105 -6 0 -29 36 -52 80 -22 44 -45 80 -49 80 -4 0 -20 -19 -35 -43 -62 -93 -190 -217 -226 -217 -23 0 -5 32 35 59 60 42 151 144 181 204 22 46 23 52 10 78 -22 41 -23 40 76 180 50 72 90 132 88 134 -2 2 -33 -3 -69 -10 -125 -27 -201 -14 -219 37 -22 64 -14 138 24 213 19 39 40 97 46 130 16 83 57 125 124 125 54 0 54 0 4 109 -85 186 -263 345 -462 411 -117 39 -146 44 -153 22 -71 -225 -211 -317 -498 -324 l-129 -3 -14 50 c-18 61 -42 88 -113 126 -106 56 -109 94 -16 180 l51 47 -18 30 c-23 41 -22 53 13 97 21 27 30 49 30 75 0 67 69 123 165 137 25 3 45 10 45 15 0 24 47 30 86 10 21 -10 64 -27 94 -37 187 -60 290 -162 306 -301 l6 -50 57 -12 c275 -58 553 -309 620 -559 10 -35 17 -43 47 -53 19 -7 37 -10 39 -8 10 10 -54 190 -105 293 -142 290 -412 615 -733 883 l-98 82 -132 0 c-155 0 -237 16 -339 63 -226 105 -377 310 -472 639 -61 211 -75 412 -22 309 38 -73 148 -144 381 -247 370 -163 538 -360 581 -684 5 -37 13 -53 31 -65 82 -54 383 -342 507 -485 219 -251 365 -508 426 -745 16 -65 57 -121 75 -103 10 10 -54 234 -100 348 -93 230 -200 415 -455 790 -313 459 -426 659 -530 935 -99 267 -189 423 -312 541 l-53 52 -75 -14 c-164 -29 -344 -12 -466 45 -104 49 -150 86 -359 291 -208 203 -281 266 -402 344 -73 47 -83 52 -83 39z m2940 -3994 c0 -44 -4 -68 -10 -64 -17 10 -11 135 6 135 2 0 4 -32 4 -71z M160 4714 c1 -5 31 -31 67 -59 37 -27 164 -144 283 -260 304 -295 366 -328 620 -329 143 -1 220 7 220 23 0 12 -181 144 -305 222 -246 155 -887 446 -885 403z M5540 4623 c-60 -26 -209 -51 -375 -63 -265 -19 -360 -52 -472 -166 -65 -66 -183 -278 -165 -296 23 -23 361 96 552 193 191 97 500 305 500 336 0 7 -1 13 -2 12 -2 0 -19 -8 -38 -16z M5550 4559 c-273 -216 -691 -425 -962 -483 -40 -9 -34 -24 14 -37 378 -101 614 -15 856 314 76 101 172 243 172 252 0 13 -19 2 -80 -46z M2137 4563 c14 -50 7 -266 -11 -388 -30 -194 -7 -352 65 -458 29 -42 121 -137 133 -137 12 0 1 98 -33 299 -40 230 -47 305 -30 299 9 -3 19 -43 30 -119 9 -63 29 -181 43 -264 14 -82 26 -162 26 -177 0 -40 20 -34 58 17 62 82 77 134 76 275 0 138 -18 210 -88 348 -87 171 -298 410 -269 305z M3643 4108 c-276 -289 -490 -752 -577 -1253 -26 -150 -17 -153 34 -10 118 328 400 946 564 1233 51 90 45 98 -21 30z M3682 4058 c-19 -23 -247 -480 -311 -623 -127 -283 -288 -692 -276 -703 3 -4 11 2 17 13 6 11 54 75 105 143 224 294 304 468 408 892 25 102 53 207 61 233 16 50 15 67 -4 45z M890 3600 c0 -5 17 -36 37 -68 188 -289 449 -532 796 -741 l37 -23 0 35 c0 108 -66 264 -159 374 -102 121 -185 174 -501 319 -47 21 -107 52 -135 69 -27 17 -56 35 -62 39 -7 4 -13 2 -13 -4z M846 3563 c134 -566 390 -832 791 -821 l107 3 -123 79 c-306 197 -537 419 -710 684 -55 85 -76 102 -65 55z M4995 3581 c-12 -20 -132 -86 -268 -147 -286 -130 -420 -235 -504 -399 -53 -102 -99 -285 -73 -285 33 0 296 182 441 305 149 127 429 468 429 523 0 14 -16 16 -25 3z M4987 3466 c-169 -262 -508 -577 -764 -710 -59 -30 -41 -39 59 -31 368 28 609 241 731 645 34 112 53 200 44 200 -2 0 -34 -47 -70 -104z M2596 2618 c4 -7 22 -31 39 -53 105 -134 229 -410 266 -592 20 -99 32 -76 26 50 -7 144 -35 251 -92 349 -49 84 -50 88 -35 88 19 0 89 -123 112 -197 13 -40 26 -73 29 -73 10 0 21 154 13 186 -17 73 -70 141 -146 190 -73 47 -232 85 -212 52z M1513 2453 c-9 -3 -13 -26 -13 -67 0 -117 86 -212 244 -271 67 -25 186 -45 186 -31 0 39 -108 162 -165 188 -27 12 -34 28 -11 28 18 0 131 -84 144 -107 20 -34 25 -3 7 37 -32 70 -96 119 -219 165 -33 13 -83 32 -111 43 -27 10 -56 17 -62 15z m147 -68 c59 -19 159 -75 181 -101 8 -10 -7 -5 -37 12 -54 30 -84 28 -84 -5 0 -14 13 -27 38 -40 39 -20 142 -124 142 -143 0 -30 -166 22 -258 82 -91 58 -152 173 -123 229 12 21 12 21 49 2 20 -10 62 -26 92 -36z M4275 2431 c-38 -15 -92 -36 -118 -45 -67 -25 -137 -84 -169 -143 -37 -67 -27 -71 31 -13 53 53 103 83 129 78 12 -3 4 -12 -28 -32 -74 -46 -160 -142 -160 -178 0 -13 68 -9 133 8 194 50 327 193 301 323 -8 39 -25 39 -119 2z m103 -29 c11 -109 -131 -240 -303 -281 -27 -7 -58 -14 -67 -17 -55 -16 41 107 118 152 83 49 46 97 -39 51 -37 -20 -45 -22 -33 -8 24 26 119 75 196 100 36 12 72 26 80 31 26 17 45 7 48 -28z M1387 2406 c-66 -24 -87 -46 -87 -94 0 -36 -20 -81 -44 -101 -24 -20 -19 -40 18 -77 47 -47 56 -44 49 19 -8 79 32 146 120 201 20 12 27 24 25 39 -4 27 -30 31 -81 13z m58 -16 c3 -5 -12 -20 -33 -34 -22 -14 -53 -42 -71 -62 l-31 -38 5 39 c6 45 27 72 70 91 36 16 52 17 60 4z m-143 -204 c-7 -48 -7 -48 -25 -28 -18 20 -18 21 4 51 28 38 30 37 21 -23z M4425 2400 c-3 -5 4 -17 16 -27 130 -105 149 -152 113 -273 -15 -49 -14 -56 2 -91 l17 -39 43 40 c24 22 60 48 79 57 46 22 44 34 -11 85 -25 23 -69 76 -97 117 -66 95 -145 159 -162 131z m255 -268 l35 -30 -34 -19 c-19 -10 -49 -31 -68 -47 -51 -44 -65 -20 -38 68 8 27 15 65 15 85 l0 35 28 -31 c15 -17 43 -45 62 -61z M4405 2313 c-17 -69 -117 -161 -219 -204 -49 -20 -72 -39 -48 -39 19 0 178 -22 191 -26 10 -3 11 -8 4 -15 -9 -9 -194 8 -287 27 -47 10 -27 -11 79 -81 128 -84 187 -107 295 -112 76 -5 88 -3 113 17 33 27 33 33 1 105 -26 57 -27 58 -10 110 30 97 21 141 -42 208 -43 44 -67 47 -77 10z m80 -44 c41 -45 40 -33 19 -203 -5 -38 -1 -59 16 -97 27 -57 20 -73 -39 -89 -76 -20 -190 13 -312 91 -90 58 -90 66 -3 50 87 -16 173 -14 180 4 11 26 -16 45 -65 46 -94 2 -103 12 -41 43 65 33 144 106 171 159 24 46 28 46 74 -4z M1426 2310 c-92 -60 -102 -224 -16 -275 59 -34 259 -15 343 33 5 2 -23 20 -61 38 -86 41 -173 119 -202 179 -25 51 -25 51 -64 25z m122 -132 c27 -25 73 -58 102 -73 61 -31 58 -37 -32 -59 -153 -37 -225 -12 -243 87 -11 58 2 103 42 143 l36 37 23 -44 c12 -25 44 -65 72 -91z M1206 2035 c-72 -65 -70 -84 18 -130 72 -38 104 -71 120 -126 l13 -44 119 4 c217 6 339 61 411 183 70 119 52 126 -89 32 -139 -92 -211 -124 -296 -131 -168 -14 -223 39 -172 166 l19 50 -33 26 c-43 33 -41 33 -110 -30z m97 12 c16 -11 16 -16 0 -83 l-18 -71 -44 26 c-71 42 -74 54 -21 101 49 43 58 46 83 27z m572 -107 c-59 -116 -226 -190 -432 -190 -51 0 -64 3 -73 19 -18 35 -12 39 53 34 124 -10 235 29 388 136 90 63 96 63 64 1z M1695 2018 c-121 -37 -231 -43 -284 -15 -19 9 -35 17 -36 17 -8 0 -35 -85 -35 -110 0 -43 31 -60 110 -60 115 0 191 29 333 126 43 30 82 54 88 54 5 0 9 5 9 10 0 19 -85 9 -185 -22z m35 -51 c-111 -73 -177 -97 -267 -97 -76 0 -103 12 -103 45 0 38 21 77 38 70 80 -30 182 -24 313 19 117 38 121 30 19 -37z M3960 2027 c0 -29 63 -137 96 -166 70 -62 177 -102 311 -116 60 -7 62 -6 102 30 55 50 52 55 -27 55 -108 0 -197 32 -316 113 -64 43 -154 97 -161 97 -3 0 -5 -6 -5 -13z m140 -93 c107 -75 233 -124 322 -124 52 0 57 -16 13 -40 -28 -15 -162 1 -236 29 -95 36 -199 132 -199 183 0 21 5 19 100 -48z M3283 1451 c-74 -27 -149 -70 -194 -111 l-39 -35 14 -40 c9 -22 15 -48 16 -57 0 -26 25 -23 148 16 130 42 177 49 220 37 38 -11 38 -11 17 75 -31 134 -66 156 -182 115z m124 -23 c24 -27 43 -80 43 -119 0 -28 -1 -29 -57 -29 -38 0 -95 -12 -170 -36 -124 -40 -128 -40 -138 23 -6 41 -6 42 49 83 58 44 183 99 227 100 14 0 35 -10 46 -22z M2512 1437 c-12 -12 -28 -52 -37 -89 -8 -37 -17 -73 -20 -80 -4 -10 13 -13 77 -13 66 -1 102 -7 176 -33 136 -46 145 -46 154 3 4 22 10 52 13 66 6 24 0 30 -62 72 -140 93 -257 121 -301 74z m225 -51 c29 -14 68 -39 86 -56 l34 -29 -12 -48 c-7 -27 -17 -47 -21 -47 -5 1 -54 16 -109 33 -55 18 -130 35 -168 38 -55 5 -67 9 -63 22 2 9 9 37 16 63 25 98 81 103 237 24z M3360 1233 c-14 -2 -65 -17 -115 -33 -49 -16 -108 -33 -130 -38 -68 -14 -58 -37 31 -78 140 -64 342 -100 375 -67 6 6 13 44 16 85 5 67 3 78 -15 96 -33 33 -95 46 -162 35z m134 -38 c23 -16 26 -24 26 -79 0 -86 -6 -91 -89 -90 -80 2 -187 31 -276 76 -68 35 -76 28 80 76 55 17 107 33 115 36 27 10 118 -2 144 -19z M2445 1214 c-42 -23 -45 -30 -45 -106 0 -98 16 -113 119 -105 80 5 200 40 291 85 90 45 88 47 -90 102 -128 39 -231 48 -275 24z m185 -20 c30 -9 90 -25 133 -37 42 -12 77 -25 77 -28 0 -27 -259 -109 -345 -109 -66 0 -75 10 -75 87 0 61 1 64 33 83 39 24 103 26 177 4z M3033 1093 c-7 -2 -13 -11 -13 -18 0 -14 257 -563 270 -578 12 -14 132 215 123 234 -4 9 -53 79 -108 157 l-100 140 -74 34 c-90 40 -83 38 -98 31z m187 -121 c14 -20 54 -77 91 -127 96 -132 93 -114 40 -216 -25 -49 -50 -89 -54 -89 -7 0 -88 163 -184 370 -19 41 -43 93 -54 116 -10 22 -19 43 -19 46 0 21 158 -67 180 -100z M2800 1053 l-75 -34 -97 -139 c-54 -76 -101 -145 -104 -154 -5 -14 104 -236 117 -236 7 0 279 574 279 589 0 19 -43 10 -120 -26z m90 7 c0 -21 -244 -520 -252 -518 -6 2 -30 42 -56 89 l-46 85 100 142 c97 139 100 143 169 176 78 38 85 41 85 26z"/></g><g transform="translate(0.000000,740.000000) scale(0.100000,-0.100000)" fill="#f8b0a0" class="iso-coral"><path d="M3190 7322 c-25 -10 -74 -34 -109 -53 -70 -37 -71 -37 -286 -28 -132 6 -193 -24 -254 -126 -31 -51 -35 -64 -35 -133 0 -115 24 -154 204 -332 141 -139 250 -271 291 -352 28 -55 44 -48 57 26 29 154 7 379 -53 555 -27 79 -31 111 -15 111 52 0 129 -380 116 -578 -5 -83 -4 -103 6 -100 12 4 306 406 384 525 112 171 69 393 -91 475 -56 29 -157 34 -215 10z M3733 6950 c-120 -43 -175 -99 -389 -397 -98 -137 -195 -270 -216 -296 -55 -70 -55 -70 90 -64 194 8 346 65 491 188 39 32 75 59 81 59 25 0 6 -33 -45 -77 -112 -97 -274 -174 -433 -204 -79 -15 -75 -25 23 -61 384 -142 572 -177 762 -144 235 41 365 150 367 306 2 120 -38 170 -208 266 -110 62 -140 97 -162 189 -9 39 -21 88 -26 110 -29 117 -189 177 -335 125z M2196 6859 c-54 -13 -88 -40 -139 -112 -58 -80 -105 -112 -195 -133 -132 -30 -180 -86 -189 -222 -7 -92 4 -118 70 -179 106 -98 261 -113 561 -55 195 37 422 57 549 48 106 -8 116 7 35 54 -99 57 -198 81 -350 87 -102 4 -138 9 -138 18 0 61 328 17 494 -67 32 -16 61 -27 64 -23 29 28 -266 360 -429 483 -112 84 -241 124 -333 101z M2620 6160 c-614 -42 -1009 -255 -940 -509 28 -107 110 -149 275 -142 158 7 185 5 267 -23 201 -69 341 6 460 245 56 115 118 209 199 306 76 90 78 93 50 93 -88 0 -292 -111 -406 -222 -45 -43 -87 -78 -94 -78 -73 0 188 223 335 286 60 25 81 43 52 44 -7 1 -29 2 -48 4 -19 2 -87 0 -150 -4z M923 6119 c-5 -8 -21 -45 -33 -84 -13 -38 -39 -94 -58 -123 -34 -50 -35 -57 -37 -150 -1 -53 -7 -133 -14 -177 -29 -202 47 -326 255 -418 72 -31 186 -57 255 -57 l49 0 0 34 c0 177 -126 396 -295 514 -36 25 -26 41 13 21 46 -24 196 -181 225 -236 16 -29 39 -83 52 -120 31 -89 45 -92 45 -10 0 73 -27 172 -72 261 -16 32 -27 60 -24 63 18 19 71 -80 108 -199 12 -43 26 -78 31 -78 19 0 6 159 -19 236 -55 170 -206 396 -327 490 -53 41 -133 58 -154 33z M3062 6094 c17 -124 119 -237 273 -300 49 -20 70 -52 30 -46 -44 7 -163 72 -212 116 -47 43 -93 118 -133 221 l-12 30 -65 -70 c-249 -267 -337 -568 -202 -690 79 -71 177 -69 304 7 160 95 190 101 422 85 399 -26 675 134 677 393 l1 65 -120 -3 c-203 -6 -273 10 -775 183 -58 20 -125 39 -149 42 l-44 6 5 -39z M4950 6111 c-109 -58 -354 -381 -408 -538 -47 -134 -50 -301 -7 -359 15 -21 19 1 30 152 6 86 49 244 67 244 11 0 9 -13 -15 -103 -34 -122 -45 -367 -18 -367 35 0 75 105 96 251 27 193 70 288 151 335 59 35 93 27 167 -36 66 -56 103 -64 136 -29 40 43 35 104 -19 209 -23 46 -30 118 -16 181 16 71 -78 105 -164 60z M685 6056 c-37 -16 -128 -112 -120 -126 10 -17 74 -11 116 11 22 11 63 23 90 26 56 7 68 17 76 67 l6 36 -69 0 c-38 -1 -82 -7 -99 -14z M5149 6008 c-16 -29 -4 -89 29 -148 24 -44 31 -50 60 -50 64 0 109 -36 138 -110 30 -78 83 -122 70 -57 -4 17 -13 70 -21 117 -23 150 -60 207 -148 231 -23 6 -59 17 -79 25 -35 13 -38 12 -49 -8z M700 5918 c-47 -24 -90 -83 -90 -125 0 -31 15 -29 39 6 12 16 41 37 65 46 31 12 48 26 59 50 25 52 0 60 -73 23z M5451 5867 c3 -66 13 -87 54 -110 66 -37 88 -79 82 -162 -7 -116 45 -190 79 -110 20 49 18 77 -14 153 -16 37 -32 90 -36 117 -12 81 -38 106 -138 136 -27 7 -28 6 -27 -24z M483 5875 c-45 -19 -69 -64 -82 -150 -6 -41 -18 -93 -27 -117 -46 -127 -49 -139 -34 -148 36 -23 127 8 115 37 -28 65 -29 110 -2 156 15 25 27 52 27 61 0 33 26 68 62 87 37 19 64 61 52 80 -8 14 -75 10 -111 -6z M675 5770 c-28 -44 -70 -75 -124 -90 -52 -14 -81 -47 -81 -91 0 -77 23 -87 92 -42 32 21 56 28 108 31 l68 4 12 72 c18 107 12 150 -22 154 -22 3 -32 -4 -53 -38z M5227 5773 c-3 -5 -8 -29 -11 -55 -4 -29 -17 -60 -33 -78 -27 -33 -28 -19 8 -171 23 -96 75 -117 216 -90 75 15 109 18 134 11 46 -14 49 -13 49 10 0 54 -46 112 -114 144 -70 32 -92 56 -131 142 -25 54 -41 77 -60 84 -31 12 -52 13 -58 3z M527 5763 c-10 -10 -8 -53 2 -53 25 0 41 14 41 36 0 23 -27 34 -43 17z M5475 5720 c-16 -27 53 -159 76 -145 14 9 11 73 -6 105 -20 39 -57 60 -70 40z M4863 5690 c-69 -41 -101 -120 -128 -310 -18 -120 -36 -173 -87 -253 -17 -26 -29 -49 -27 -51 20 -17 63 -28 132 -32 195 -14 378 70 457 210 37 63 37 70 1 102 -35 31 -57 83 -67 152 -7 52 -33 92 -60 92 -18 0 -59 27 -118 77 -46 38 -59 40 -103 13z M596 5524 c-15 -9 -48 -31 -73 -50 -48 -36 -135 -67 -178 -62 -104 12 14 -189 181 -308 135 -96 278 -144 436 -144 140 0 163 21 41 39 -111 16 -293 108 -293 146 0 22 8 19 66 -26 85 -65 178 -94 304 -93 177 1 208 30 70 64 -254 63 -394 194 -418 391 l-7 54 -50 2 c-31 2 -61 -3 -79 -13z M5395 5335 c-27 -7 -63 -14 -80 -14 -27 -1 -33 -8 -58 -61 -62 -133 -266 -260 -419 -260 -37 0 -36 -17 3 -25 64 -14 204 13 296 58 24 11 46 17 50 13 24 -23 -133 -86 -249 -100 -77 -10 -81 -22 -11 -36 117 -25 302 15 429 91 128 77 264 237 250 294 -13 51 -101 68 -211 40z M1508 2425 c-15 -34 4 -119 38 -169 49 -71 197 -149 309 -162 51 -6 55 -5 55 14 0 27 -93 128 -142 153 -36 19 -46 38 -22 46 6 2 38 -14 72 -36 67 -44 87 -40 46 8 -33 39 -124 94 -194 116 -30 10 -72 26 -92 36 -48 25 -56 24 -70 -6z M4320 2440 c-8 -5 -44 -19 -80 -31 -87 -29 -152 -62 -195 -100 -51 -45 -46 -81 6 -40 37 29 89 52 99 46 18 -11 10 -23 -34 -49 -76 -45 -162 -155 -134 -172 14 -9 145 25 206 53 128 60 207 160 200 255 -3 46 -32 62 -68 38z M1375 2396 c-44 -20 -66 -49 -72 -98 -3 -24 -16 -57 -29 -75 -30 -40 -30 -54 -1 -81 34 -32 51 -29 43 9 -14 70 33 148 124 210 52 35 -1 63 -65 35z M4409 2298 c-20 -51 -108 -137 -171 -169 -88 -45 -87 -57 10 -66 65 -6 96 -19 86 -35 -7 -10 -46 -9 -214 8 -81 9 -75 -1 42 -76 102 -66 174 -91 263 -93 117 -3 147 31 104 115 -16 31 -19 51 -15 82 4 23 9 71 12 108 l6 66 -42 46 c-50 55 -63 57 -81 14z M1411 2291 c-51 -48 -65 -122 -38 -201 24 -69 122 -88 266 -50 102 26 105 33 31 70 -77 39 -161 116 -185 170 -21 48 -33 49 -74 11z M4574 2215 c5 -30 2 -64 -10 -104 -28 -103 -3 -138 61 -83 17 15 46 35 64 44 42 23 39 40 -14 83 -25 21 -54 52 -66 71 -29 48 -43 44 -35 -11z M1213 2031 c-60 -56 -62 -60 -30 -88 54 -48 136 -80 124 -49 -3 8 2 44 11 81 l16 67 -25 19 c-34 26 -37 25 -96 -30z M1720 2019 c-138 -43 -207 -51 -281 -32 -69 17 -71 16 -89 -46 -18 -65 10 -84 121 -82 92 1 162 27 276 102 137 91 129 107 -27 58z M3985 1983 c24 -103 147 -191 304 -219 108 -19 143 -18 169 6 33 31 28 50 -11 50 -105 0 -223 46 -363 141 -84 57 -110 63 -99 22z M1801 1949 c-160 -112 -298 -157 -405 -132 -55 12 -62 6 -42 -42 l15 -35 73 0 c217 0 383 71 443 189 45 90 22 95 -84 20z M2545 1450 c-32 -12 -43 -31 -60 -99 -21 -81 -20 -83 55 -86 40 -2 108 -17 178 -40 125 -41 123 -41 140 29 15 60 -3 84 -99 136 -105 56 -176 76 -214 60z M3253 1431 c-65 -26 -155 -82 -181 -113 -17 -21 10 -112 35 -116 10 -2 62 11 114 29 52 17 127 34 169 38 l75 6 -3 35 c-13 145 -68 177 -209 121z M2907 1262 c-23 -25 -22 -94 1 -122 20 -25 75 -30 111 -11 24 13 30 95 11 132 -15 26 -100 27 -123 1z M3340 1224 c-8 -3 -60 -19 -115 -36 -171 -53 -170 -50 -76 -97 91 -46 195 -74 283 -75 95 -1 98 2 98 100 0 67 -2 73 -27 89 -26 18 -133 30 -163 19z M2443 1200 c-32 -19 -33 -21 -33 -93 0 -43 5 -78 12 -85 33 -33 220 -2 356 58 96 44 95 59 -5 87 -43 12 -103 28 -133 37 -76 22 -157 21 -197 -4z M3030 1071 c0 -11 7 -32 15 -48 8 -15 44 -91 80 -168 37 -77 87 -184 112 -237 25 -54 52 -98 59 -98 7 0 36 44 64 97 60 114 62 100 -37 235 -38 51 -79 110 -93 130 -19 28 -43 45 -105 73 -93 41 -95 41 -95 16z M2795 1045 c-68 -34 -72 -38 -167 -174 -54 -77 -98 -147 -98 -158 1 -28 94 -188 110 -188 14 0 254 487 262 530 5 31 -29 28 -107 -10z"/></g></g><g transform="translate(0.000000,2961.000000) scale(0.100000,-0.100000)" fill="#305038" class="iso-linea"><path d="M13054 29540 c-154 -17 -419 -101 -524 -165 -125 -76 -427 -226 -500 -248 -119 -36 -261 -37 -495 -3 -595 86 -901 32 -1212 -216 -243 -192 -428 -530 -464 -846 -26 -231 20 -531 103 -667 34 -57 21 -59 -53 -9 -30 21 -103 61 -164 90 -518 247 -1024 229 -1369 -49 -68 -54 -138 -140 -256 -312 -232 -338 -361 -423 -767 -505 -284 -57 -377 -97 -507 -221 -191 -181 -296 -420 -332 -759 -57 -537 193 -913 776 -1167 137 -60 366 -117 558 -140 81 -10 80 -22 -5 -54 -78 -30 -286 -130 -383 -184 -618 -347 -940 -776 -940 -1250 0 -417 232 -756 616 -901 234 -88 597 -110 949 -59 316 46 466 33 680 -61 191 -84 274 -106 465 -125 204 -19 461 8 613 65 109 41 284 135 365 196 91 68 280 251 307 298 23 38 41 37 38 -4 -21 -374 41 -630 205 -851 167 -224 439 -346 772 -345 287 1 514 91 935 372 129 86 342 190 391 190 18 0 22 -18 34 -170 5 -74 17 -207 25 -295 9 -88 20 -238 25 -333 5 -95 11 -180 14 -190 3 -9 13 -235 22 -502 17 -502 15 -1056 -5 -1510 -22 -493 -32 -672 -41 -790 -6 -69 -17 -219 -25 -335 -29 -411 -36 -491 -45 -555 -6 -36 -14 -117 -19 -180 -18 -221 -33 -345 -42 -355 -16 -16 -26 12 -33 94 -6 75 -10 98 -41 261 -112 579 -365 1123 -730 1566 -235 287 -668 679 -914 829 -9 6 -31 20 -48 33 -171 123 -635 361 -813 417 -30 10 -73 24 -95 31 -83 28 -134 14 -156 -42 -11 -30 -8 -36 69 -163 70 -113 69 -112 175 -301 95 -169 249 -480 304 -615 25 -60 59 -137 76 -170 16 -33 38 -84 48 -113 10 -29 59 -155 108 -280 115 -289 202 -525 356 -967 40 -115 80 -228 88 -250 39 -105 91 -246 109 -300 25 -76 139 -365 168 -430 12 -27 47 -108 77 -180 65 -154 136 -302 231 -480 37 -71 86 -164 107 -205 21 -41 62 -115 90 -165 168 -292 319 -619 378 -815 83 -278 96 -394 65 -555 -9 -44 -21 -114 -27 -155 -47 -322 -100 -656 -121 -760 -12 -57 -37 -214 -50 -305 -5 -38 -14 -97 -19 -130 -12 -74 -69 -448 -82 -530 -4 -33 -19 -143 -33 -245 -13 -102 -34 -250 -45 -330 -19 -139 -39 -311 -62 -525 -6 -55 -19 -165 -30 -245 -22 -161 -47 -387 -56 -497 -7 -86 -14 -90 -47 -25 -36 71 -172 249 -246 321 -311 305 -820 510 -1306 528 l-161 6 -21 -31 c-12 -16 -22 -35 -22 -41 0 -30 48 -96 152 -211 514 -569 989 -1546 1233 -2535 35 -143 67 -278 70 -300 4 -22 19 -110 35 -195 15 -85 35 -200 45 -255 9 -55 23 -131 30 -170 21 -105 33 -308 45 -750 6 -220 14 -517 19 -660 4 -143 5 -264 1 -268 -4 -5 -34 14 -66 41 -101 85 -110 98 -123 187 -40 267 -82 459 -156 709 -81 274 -200 614 -317 905 -75 186 -295 647 -442 926 -99 187 -388 691 -472 823 -19 29 -34 55 -34 57 0 3 -33 56 -74 118 -40 61 -107 164 -147 228 -41 64 -96 150 -123 190 -145 218 -181 279 -208 353 -217 599 -322 931 -392 1236 -15 63 -38 160 -52 215 -50 204 -74 447 -74 749 0 150 4 297 10 327 5 30 19 109 30 177 11 68 28 153 39 190 10 37 33 117 50 177 17 61 45 151 61 200 130 386 226 754 255 977 6 43 12 53 96 129 180 164 366 441 452 674 116 314 158 774 102 1130 -25 160 -84 416 -105 455 -5 10 -21 55 -35 99 -144 454 -495 1056 -864 1476 -270 309 -625 656 -687 671 -31 8 -70 -11 -92 -44 -17 -27 -17 -33 33 -282 84 -418 86 -916 6 -1475 -11 -77 -27 -194 -36 -260 -8 -66 -21 -151 -27 -190 -8 -45 -12 -191 -12 -405 l0 -335 32 -155 c109 -538 368 -950 838 -1338 62 -50 114 -98 117 -105 6 -15 -5 -83 -34 -217 -47 -213 -73 -313 -124 -470 -162 -503 -179 -560 -221 -756 -96 -455 -97 -796 -3 -1329 48 -275 150 -683 218 -877 53 -149 40 -146 -66 15 -45 67 -121 178 -170 247 -133 187 -526 785 -642 978 -19 31 -68 111 -110 177 -73 118 -172 286 -256 435 -68 122 -190 344 -194 355 -2 5 -9 17 -17 25 -13 15 -234 454 -234 465 0 3 -34 84 -75 180 -41 97 -81 192 -89 213 -44 121 -145 411 -151 432 -3 14 -17 61 -30 105 -86 289 -148 611 -201 1035 -31 248 -40 1180 -14 1385 16 126 17 830 1 1030 -88 1119 -508 2028 -1254 2720 -53 49 -97 95 -97 102 0 7 14 36 31 64 151 258 267 589 315 904 19 127 21 475 4 609 -21 163 -88 457 -129 568 -127 345 -255 594 -480 938 -42 63 -78 117 -81 120 -3 3 -46 61 -95 130 -354 496 -637 778 -925 921 -58 29 -109 54 -115 55 -5 1 -28 6 -50 12 -205 55 -369 -3 -482 -170 l-49 -73 -280 -6 c-359 -8 -416 -16 -549 -80 -92 -43 -219 -142 -320 -250 -270 -286 -424 -437 -485 -472 -241 -143 -339 -292 -375 -568 -53 -411 -78 -514 -183 -749 -83 -188 -109 -277 -120 -402 -9 -105 -9 -107 -50 -153 -48 -55 -82 -137 -82 -199 0 -108 80 -314 175 -451 27 -38 67 -97 89 -130 152 -228 549 -606 784 -747 37 -22 99 -62 139 -89 151 -102 461 -246 708 -327 557 -184 1157 -198 1670 -37 269 84 588 253 759 403 15 12 32 22 40 22 27 0 409 -376 466 -460 13 -19 52 -69 85 -110 364 -448 651 -1182 729 -1865 39 -350 47 -1014 16 -1475 -31 -473 -20 -937 32 -1314 7 -44 -23 -23 -50 36 -161 355 -586 926 -916 1233 -87 80 -108 105 -116 139 -28 108 -110 343 -206 591 -82 214 -231 489 -386 716 -243 354 -625 704 -1023 934 -240 139 -671 320 -905 382 -483 126 -814 187 -1155 213 -77 6 -187 15 -245 20 -132 12 -918 12 -1065 0 -60 -5 -220 -14 -355 -21 -295 -14 -303 -16 -308 -97 l-3 -52 60 -37 c33 -21 104 -65 158 -97 312 -189 534 -354 958 -712 86 -73 433 -399 555 -523 41 -42 206 -209 366 -371 656 -666 890 -847 1349 -1040 530 -223 1164 -260 1954 -115 l155 29 176 -181 c97 -99 197 -207 223 -239 248 -310 297 -379 414 -579 166 -285 249 -445 307 -589 18 -44 49 -119 68 -166 20 -47 55 -132 78 -190 23 -58 54 -127 67 -154 14 -28 48 -115 75 -195 93 -273 120 -346 216 -576 93 -224 295 -640 447 -919 41 -77 75 -141 75 -143 0 -2 11 -19 24 -36 13 -18 70 -113 126 -212 57 -99 122 -209 145 -245 23 -36 104 -164 180 -285 137 -218 490 -753 726 -1100 185 -273 294 -437 309 -465 7 -14 25 -39 39 -55 14 -17 64 -86 111 -154 226 -328 318 -465 350 -518 19 -32 75 -121 126 -198 85 -130 286 -454 331 -535 11 -19 64 -111 118 -205 138 -238 471 -903 535 -1065 29 -74 63 -155 75 -180 54 -108 220 -569 280 -775 14 -49 34 -119 45 -155 25 -86 80 -316 80 -338 0 -9 9 -51 19 -92 21 -83 15 -106 -21 -73 -13 11 -48 36 -78 55 -72 46 -86 64 -94 118 -13 88 -53 249 -102 410 -42 138 -144 431 -154 445 -4 6 -16 35 -28 65 -109 296 -450 926 -694 1282 -144 209 -252 361 -327 458 -36 46 -82 106 -101 132 -71 96 -203 253 -365 434 -49 55 -126 143 -170 195 -219 258 -1193 1196 -1490 1435 -33 27 -93 78 -134 114 -41 35 -131 108 -200 161 l-126 95 -13 100 c-31 241 -119 653 -168 789 -70 191 -90 239 -144 347 -236 469 -616 888 -1095 1205 -338 224 -508 310 -1014 520 -47 19 -120 52 -162 74 -43 21 -124 57 -179 79 -104 42 -257 116 -319 154 -20 13 -81 47 -136 76 -293 154 -511 352 -678 615 -31 48 -34 50 -83 53 -59 3 -77 -11 -78 -61 0 -112 49 -469 114 -822 38 -209 140 -565 258 -900 391 -1115 1015 -1857 1847 -2197 393 -161 765 -224 1270 -215 138 2 306 9 373 16 101 10 127 10 141 -1 59 -43 159 -125 251 -203 58 -50 130 -110 160 -135 85 -69 175 -148 259 -226 42 -39 114 -104 161 -145 262 -228 925 -895 1147 -1154 78 -91 120 -140 164 -189 19 -23 61 -72 91 -111 31 -38 102 -126 157 -194 55 -68 133 -170 173 -225 39 -56 111 -155 158 -221 247 -344 639 -1032 750 -1315 16 -41 49 -122 73 -180 65 -156 116 -316 192 -600 12 -47 26 -93 30 -102 8 -20 -23 -26 -41 -9 -5 5 -54 28 -109 52 -125 53 -128 55 -144 131 -37 178 -153 471 -238 605 -18 29 -33 54 -33 57 0 22 -199 320 -298 446 -163 206 -517 528 -777 705 -220 150 -505 291 -795 394 -146 52 -343 103 -508 131 -40 6 -75 17 -77 24 -1 6 -7 63 -13 126 -36 390 -218 709 -542 949 -99 74 -373 211 -530 265 -273 95 -375 134 -505 195 -130 60 -146 65 -222 69 -106 5 -175 -31 -208 -111 -18 -43 -23 -44 -160 -50 -280 -13 -592 -195 -656 -382 -20 -57 -24 -91 -25 -185 0 -140 -14 -175 -110 -276 -95 -100 -117 -148 -112 -243 4 -84 22 -128 90 -219 21 -29 38 -56 36 -60 -3 -8 -93 -91 -159 -147 -289 -246 -319 -284 -319 -404 0 -156 117 -277 400 -414 263 -127 361 -261 425 -577 27 -133 31 -136 160 -115 58 10 214 19 440 25 414 11 527 24 755 85 36 9 72 18 80 20 133 30 391 163 581 302 252 183 450 492 539 838 l28 110 43 -2 c24 -2 76 -10 114 -18 39 -8 104 -22 145 -30 68 -15 318 -97 444 -147 459 -180 1021 -611 1330 -1018 188 -247 362 -556 426 -755 10 -33 31 -93 45 -134 29 -81 25 -98 -19 -81 -15 5 -65 10 -111 10 -211 0 -347 -86 -445 -279 -42 -84 -100 -307 -100 -388 0 -44 -43 -160 -104 -278 -28 -55 -56 -110 -61 -121 -6 -12 -30 -50 -54 -85 -66 -94 -81 -153 -81 -324 0 -338 42 -518 136 -576 95 -59 367 -86 592 -60 81 10 373 66 450 87 29 8 29 -12 -2 -45 -13 -15 -52 -69 -88 -121 -36 -52 -116 -167 -178 -255 -63 -88 -148 -209 -190 -270 -42 -60 -96 -137 -119 -170 -156 -220 -156 -222 -98 -331 21 -38 49 -92 64 -120 l26 -52 -66 -133 c-135 -272 -377 -565 -637 -772 -118 -93 -115 -91 -213 -155 -101 -65 -118 -94 -86 -147 44 -74 94 -70 229 20 332 223 666 587 835 912 21 40 41 70 46 68 4 -3 56 -96 115 -208 230 -434 244 -457 295 -457 15 0 39 10 53 23 22 20 340 661 388 782 46 117 59 85 43 -105 -33 -386 -95 -669 -225 -1025 -134 -365 -326 -673 -597 -959 -94 -99 -109 -126 -93 -166 13 -31 66 -74 83 -67 53 21 226 185 303 288 10 14 51 68 90 120 119 156 201 303 336 599 58 126 122 324 163 500 15 63 33 135 41 160 7 25 20 97 29 160 8 63 19 144 25 180 17 117 23 447 11 593 l-12 137 116 239 c63 132 119 251 125 265 9 25 24 34 33 19 14 -23 -24 -1003 -43 -1128 -5 -33 -16 -132 -25 -220 -15 -154 -37 -330 -55 -445 -5 -30 -14 -89 -20 -130 -6 -41 -17 -104 -25 -140 -7 -36 -19 -94 -25 -130 -18 -103 -129 -538 -157 -615 -59 -161 -113 -330 -113 -352 0 -30 42 -73 70 -73 71 0 113 66 190 300 118 359 221 819 276 1230 31 237 35 269 49 425 8 88 19 205 25 260 25 237 32 755 19 1370 -1 40 108 293 127 298 25 6 27 -2572 4 -3088 -14 -298 -24 -933 -16 -988 l7 -47 63 0 c95 0 89 -43 111 825 22 895 30 1411 27 1755 -7 1019 -13 1531 -19 1575 -5 44 -4 48 10 36 9 -7 19 -23 23 -34 3 -12 31 -78 61 -146 l55 -123 -13 -97 c-18 -126 -19 -1043 -1 -1281 22 -295 62 -613 107 -850 9 -47 20 -112 25 -145 9 -64 70 -344 94 -435 8 -30 29 -113 46 -185 36 -146 121 -410 170 -528 45 -109 93 -131 163 -76 34 26 35 58 1 146 -35 94 -106 318 -139 438 -15 55 -33 118 -40 140 -27 87 -115 540 -145 749 -11 76 -22 142 -25 146 -14 23 -69 579 -85 860 -12 212 -11 780 1 780 10 0 26 -22 34 -50 7 -23 39 -90 185 -394 l52 -110 -14 -110 c-23 -181 -8 -502 41 -876 15 -112 59 -308 120 -529 81 -291 299 -726 465 -925 261 -313 316 -356 387 -305 25 18 29 27 29 70 0 49 0 49 -109 162 -268 278 -487 670 -614 1100 -67 224 -117 503 -136 752 -22 280 -22 305 -6 305 8 0 15 -5 15 -11 0 -11 167 -369 307 -659 46 -96 96 -187 111 -203 31 -32 88 -37 121 -10 19 17 187 322 314 570 28 57 55 103 59 103 4 0 30 -43 58 -95 109 -202 195 -317 429 -578 111 -125 355 -352 414 -387 41 -24 91 -11 121 31 35 50 29 57 -253 337 -321 318 -426 453 -599 770 -72 130 -71 127 -34 195 16 29 44 80 63 114 l33 62 -21 45 c-12 24 -48 81 -80 125 -32 44 -85 120 -118 167 -33 48 -98 141 -145 209 -91 131 -212 298 -316 435 -95 126 -105 151 -50 130 15 -5 77 -22 139 -36 460 -108 789 -98 934 29 74 65 110 243 112 559 1 159 -15 215 -96 335 -115 169 -176 307 -202 458 -50 283 -77 370 -147 473 -100 144 -254 218 -428 205 -83 -6 -87 -3 -76 52 5 22 16 81 25 130 95 514 283 879 621 1205 107 103 230 204 309 255 284 182 481 279 735 362 203 66 516 136 619 137 l34 1 22 -85 c174 -688 741 -1112 1625 -1215 185 -22 393 -21 450 1 117 45 227 160 463 483 68 91 123 215 132 292 23 195 211 395 519 549 75 38 152 116 166 169 27 104 -21 177 -255 388 -55 50 -122 119 -150 153 -27 34 -61 75 -75 91 -14 15 -49 68 -79 116 -260 423 -351 507 -710 663 l-104 45 -19 51 c-29 80 -108 144 -175 144 -47 0 -225 -61 -414 -140 -63 -27 -182 -71 -265 -99 -82 -27 -192 -68 -244 -91 -52 -22 -113 -48 -135 -57 -58 -24 -191 -104 -260 -156 -325 -247 -501 -587 -510 -987 l-3 -135 -29 -3 c-15 -2 -77 -12 -138 -23 -60 -11 -126 -22 -145 -25 -110 -16 -450 -124 -635 -201 -882 -372 -1445 -1091 -1544 -1973 l-16 -145 -65 -23 c-36 -12 -83 -29 -106 -37 -22 -8 -98 -42 -168 -75 -142 -67 -159 -71 -151 -37 2 12 12 83 20 157 22 201 70 458 114 625 11 39 32 117 47 175 98 370 303 854 496 1169 34 57 78 128 95 158 45 75 202 300 274 392 33 42 107 137 165 211 218 279 598 665 895 910 43 36 116 97 161 136 75 63 209 168 322 249 23 16 73 54 112 85 182 141 595 402 944 597 63 36 131 75 150 87 35 23 37 23 240 14 513 -22 1058 56 1460 209 237 90 619 309 775 443 233 201 322 289 420 416 22 28 80 103 130 165 143 183 420 660 498 860 14 35 54 138 90 229 36 91 67 174 70 185 7 25 51 176 83 280 22 73 75 280 94 365 5 19 19 82 33 140 48 199 101 501 122 697 18 161 15 176 -42 199 -47 20 -70 4 -130 -89 -151 -234 -367 -431 -650 -591 -76 -42 -149 -84 -163 -92 -24 -15 -155 -79 -370 -181 -110 -53 -357 -163 -365 -163 -3 0 -67 -29 -143 -64 -75 -35 -189 -87 -252 -116 -230 -105 -705 -397 -825 -507 -11 -10 -58 -52 -105 -93 -206 -182 -260 -236 -371 -376 -116 -146 -329 -462 -329 -488 0 -3 -11 -29 -24 -58 -102 -221 -167 -404 -201 -563 -9 -44 -19 -86 -21 -94 -6 -19 -30 -144 -44 -226 -6 -38 -15 -124 -20 -190 l-9 -120 -35 -30 c-19 -17 -61 -45 -93 -61 -115 -60 -461 -264 -608 -359 -27 -17 -84 -53 -125 -80 -41 -26 -138 -94 -215 -150 -77 -56 -169 -122 -205 -148 -89 -64 -218 -164 -276 -214 -27 -23 -121 -102 -209 -174 -163 -135 -626 -588 -786 -770 -79 -90 -186 -225 -332 -419 -224 -299 -557 -882 -646 -1131 -11 -30 -37 -97 -59 -149 -87 -208 -174 -495 -227 -750 -68 -321 -98 -524 -111 -745 -7 -117 -23 -155 -66 -155 -21 0 -22 -27 13 300 11 107 22 201 25 208 2 8 7 37 10 65 3 29 12 97 21 152 8 55 19 132 24 170 5 39 13 81 18 95 5 14 15 57 21 95 36 215 131 630 186 810 14 44 38 125 55 180 136 447 350 1006 508 1322 34 68 61 125 61 127 0 10 104 227 182 381 71 139 117 226 238 450 15 28 46 86 70 130 24 44 67 121 95 170 29 50 96 167 149 260 52 94 113 198 133 232 21 33 65 105 97 160 32 54 104 170 159 258 91 146 341 560 390 645 132 233 153 271 268 500 108 212 192 388 227 475 137 333 246 661 322 962 47 189 110 475 110 500 0 89 308 661 464 863 436 564 880 861 1536 1030 148 38 151 38 294 -16 165 -63 310 -111 376 -125 30 -6 89 -21 130 -34 133 -41 409 -87 625 -104 277 -23 325 -23 520 -1 405 45 726 154 1080 368 411 248 853 706 1303 1352 63 91 127 181 142 200 15 19 81 120 148 223 67 103 186 284 265 401 316 475 337 509 337 559 0 43 -37 87 -75 87 -19 0 -192 -98 -269 -153 -78 -55 -305 -172 -421 -218 -508 -196 -764 -241 -1705 -298 -341 -21 -486 -33 -565 -46 -632 -108 -1012 -306 -1392 -726 -99 -109 -164 -196 -294 -396 -102 -156 -352 -703 -375 -823 -8 -39 -18 -46 -89 -60 -776 -155 -1431 -623 -1882 -1343 -46 -73 -70 -73 -43 -1 13 34 26 127 39 284 6 69 15 161 21 205 5 44 16 143 25 220 9 77 24 196 35 265 11 69 26 181 35 250 120 987 443 1842 1013 2685 75 110 168 241 208 290 40 50 100 124 134 165 115 142 316 352 535 559 289 272 313 294 324 289 5 -1 66 -58 134 -125 69 -68 129 -123 134 -123 4 0 22 -13 39 -30 86 -80 454 -276 627 -334 443 -148 989 -173 1426 -65 162 40 353 100 444 140 51 23 117 51 147 64 390 166 859 543 1113 894 234 324 292 472 267 676 -28 233 -29 229 31 305 164 207 224 365 224 590 0 194 -10 226 -152 505 -64 126 -69 145 -93 340 -30 246 -67 331 -197 456 -86 82 -158 120 -374 199 -329 121 -435 170 -513 235 -148 126 -279 194 -421 220 -300 55 -332 72 -460 255 -181 258 -411 364 -658 301 -286 -74 -553 -268 -861 -627 -241 -281 -386 -458 -502 -614 -431 -577 -638 -997 -751 -1525 -27 -127 -28 -137 -27 -445 l0 -315 33 -130 c55 -222 171 -508 256 -633 34 -49 31 -61 -19 -102 -264 -214 -536 -475 -733 -703 -53 -62 -113 -130 -134 -152 -21 -22 -60 -70 -86 -106 -26 -37 -70 -95 -96 -129 -50 -65 -190 -269 -295 -433 -126 -194 -303 -532 -436 -827 -69 -155 -92 -212 -161 -410 -86 -247 -88 -251 -195 -695 -23 -98 -63 -315 -86 -470 -8 -55 -16 -107 -19 -115 -6 -21 -13 -68 -30 -210 -8 -69 -21 -178 -30 -242 -8 -65 -19 -155 -24 -200 -5 -46 -19 -159 -30 -253 -12 -93 -33 -264 -47 -380 -37 -313 -81 -606 -119 -792 -77 -381 -258 -981 -380 -1258 -31 -71 -72 -166 -90 -210 -60 -149 -308 -630 -439 -854 -102 -173 -306 -512 -340 -566 -137 -213 -510 -841 -606 -1020 -23 -44 -84 -153 -134 -243 -50 -89 -99 -177 -109 -195 -44 -82 -299 -604 -345 -707 -28 -63 -86 -194 -130 -290 -89 -197 -189 -446 -252 -625 -24 -66 -49 -138 -57 -160 -7 -22 -18 -49 -23 -60 -13 -25 -107 -336 -166 -549 -50 -177 -99 -398 -189 -841 -7 -38 -19 -108 -25 -155 -7 -47 -18 -122 -26 -167 -14 -77 -64 -561 -80 -767 -6 -82 -9 -90 -38 -115 -16 -14 -51 -45 -77 -69 -49 -44 -122 -64 -183 -48 l-23 6 -6 327 c-4 181 -12 411 -17 513 -18 336 14 1735 50 2200 11 140 27 350 35 465 9 116 23 272 31 349 8 76 14 160 14 188 0 27 6 61 14 76 7 15 16 68 20 117 10 149 24 243 47 319 69 230 78 257 149 446 43 113 152 337 209 432 135 219 161 260 228 349 39 52 99 131 134 175 64 78 359 467 432 567 21 28 62 86 92 127 460 633 780 1306 1060 2225 47 154 71 243 161 595 24 96 62 243 84 325 22 83 56 218 75 300 19 83 42 175 50 205 8 30 30 116 49 190 75 296 235 809 333 1065 60 156 60 189 2 218 -42 20 -75 5 -176 -80 -329 -276 -625 -583 -888 -923 -44 -57 -110 -142 -147 -189 -270 -342 -715 -1080 -882 -1461 -16 -36 -41 -87 -56 -115 -16 -27 -69 -149 -120 -270 -50 -121 -109 -263 -131 -315 -52 -120 -154 -401 -170 -466 -7 -27 -21 -62 -32 -79 l-19 -30 5 35 c3 19 22 127 41 240 19 113 38 230 41 260 10 81 53 354 70 440 8 41 24 140 35 220 11 80 23 151 25 158 3 8 16 105 30 215 14 111 32 245 40 297 47 310 92 654 115 885 6 55 17 152 25 215 37 291 100 993 125 1395 15 245 28 356 45 382 8 12 15 28 15 35 0 7 22 58 48 113 85 176 195 326 484 656 435 496 585 689 801 1031 73 115 247 431 316 573 65 132 181 395 211 475 15 41 39 102 53 135 45 107 108 308 110 348 1 32 -4 44 -28 64 -34 30 -68 28 -172 -10 -37 -13 -115 -41 -173 -62 -370 -131 -911 -472 -1173 -739 -191 -195 -348 -415 -417 -585 -36 -87 -50 -90 -50 -9 -1 35 -5 198 -10 363 -9 309 -26 547 -75 1100 -8 94 -15 193 -15 222 l0 52 37 7 c47 9 445 -2 578 -16 582 -60 1004 -49 1390 37 226 50 265 62 485 150 463 186 830 495 1049 881 51 92 130 289 141 356 5 28 16 83 24 121 18 80 21 321 6 425 -5 36 -11 74 -12 85 -3 16 21 27 178 81 315 106 572 261 766 460 170 174 268 337 325 539 35 127 41 397 10 523 -55 227 -146 393 -299 550 -145 148 -264 228 -592 397 -456 234 -546 346 -616 765 -54 331 -102 461 -236 651 -30 42 -73 92 -96 111 -22 18 -55 44 -72 58 -209 171 -528 261 -818 231 -133 -13 -283 -43 -388 -76 -150 -47 -418 -190 -518 -276 -18 -16 -39 -29 -47 -29 -18 0 -18 0 0 43 8 20 19 65 25 99 5 35 14 86 20 113 56 270 11 605 -119 887 -219 477 -728 774 -1227 718z m366 -195 c200 -49 336 -129 495 -290 304 -309 409 -764 287 -1250 -54 -217 -128 -349 -414 -743 -204 -279 -282 -388 -402 -557 -42 -60 -121 -171 -173 -245 -136 -191 -199 -280 -283 -400 -40 -58 -112 -157 -159 -220 -47 -63 -100 -135 -117 -160 -17 -25 -81 -110 -142 -188 -62 -79 -112 -148 -112 -152 0 -9 -31 -23 -37 -16 -2 2 3 28 11 57 82 287 102 1041 36 1408 -5 31 -19 112 -30 181 -64 392 -287 1132 -363 1208 -33 32 -78 23 -105 -20 -22 -35 -29 -9 58 -248 220 -610 330 -1197 330 -1769 0 -267 -41 -606 -109 -899 -29 -124 -24 -126 -112 48 -234 463 -576 893 -1161 1461 -582 565 -617 603 -727 780 -123 198 -173 362 -173 575 0 250 68 455 220 667 264 364 639 482 1245 391 418 -62 623 -27 945 163 186 109 397 198 542 229 86 18 359 12 450 -11z m2255 -1473 c245 -69 431 -207 540 -398 75 -132 108 -241 145 -470 52 -325 108 -460 254 -612 106 -110 180 -159 470 -310 491 -254 660 -421 772 -763 42 -125 41 -391 0 -519 -41 -128 -109 -256 -176 -335 -33 -38 -60 -73 -60 -77 0 -11 -217 -194 -276 -233 -165 -110 -455 -229 -714 -295 -421 -107 -1033 -114 -1475 -19 -173 37 -521 127 -640 164 -77 24 -156 48 -175 53 -19 6 -100 33 -180 62 -80 28 -183 64 -230 80 -47 16 -128 44 -180 63 -247 91 -471 171 -530 189 -36 11 -94 31 -130 43 -36 13 -108 37 -160 53 -52 17 -96 34 -97 39 -2 5 79 17 179 27 794 78 1445 361 2028 882 218 195 237 224 184 278 -49 49 -69 39 -229 -115 -276 -266 -729 -557 -1040 -671 -481 -175 -841 -241 -1305 -239 -320 1 -338 3 -304 46 31 39 266 343 333 430 127 166 430 586 733 1015 173 245 349 492 391 550 43 58 103 141 134 185 357 502 760 797 1228 901 142 31 394 29 510 -4z m-6410 -411 c229 -45 539 -182 720 -320 174 -132 404 -322 510 -423 66 -62 173 -160 239 -218 375 -330 875 -927 1100 -1315 33 -55 72 -119 87 -143 52 -76 39 -90 -29 -33 -284 235 -829 446 -1357 525 -254 39 -835 40 -915 3 -34 -17 -49 -61 -30 -94 27 -46 36 -48 212 -35 521 39 998 -34 1468 -225 231 -94 343 -158 588 -337 58 -43 76 -85 23 -57 -85 46 -1024 64 -1436 27 -110 -10 -203 -20 -206 -22 -4 -2 -60 -8 -125 -14 -148 -13 -516 -64 -649 -89 -55 -11 -170 -32 -255 -46 -160 -27 -379 -69 -440 -85 -325 -83 -624 -107 -899 -70 -643 86 -1097 397 -1180 808 -20 96 -13 304 14 437 50 248 116 388 246 517 111 110 179 140 449 198 461 98 624 210 889 610 128 192 214 271 379 347 153 71 396 93 597 54z m2295 -2797 c0 -9 -59 -33 -116 -47 -85 -22 -378 -139 -499 -199 -455 -228 -854 -531 -1162 -882 -140 -159 -149 -186 -78 -232 40 -26 75 -4 170 105 483 559 1106 940 1844 1127 201 51 181 48 181 29 0 -8 -4 -15 -9 -15 -14 0 -310 -322 -436 -475 -289 -347 -502 -678 -663 -1027 -323 -702 -641 -1035 -1108 -1160 -113 -30 -128 -32 -304 -32 -224 -1 -306 15 -530 107 -188 76 -210 83 -316 96 -119 15 -222 14 -384 -4 -74 -8 -180 -20 -235 -26 -568 -63 -970 90 -1134 432 -179 371 -97 739 243 1087 392 403 1054 705 1896 867 69 13 157 31 195 39 201 43 555 100 860 140 169 22 286 33 690 65 106 8 895 13 895 5z m831 -129 c165 -41 260 -69 574 -171 208 -68 341 -115 710 -251 879 -323 1490 -475 2020 -503 276 -15 586 6 810 55 75 16 79 12 94 -74 65 -395 -106 -858 -430 -1166 -157 -149 -398 -318 -539 -376 -36 -15 -101 -42 -145 -61 -314 -135 -747 -218 -1134 -218 -136 0 -470 19 -741 42 -208 18 -543 15 -652 -5 -259 -48 -314 -74 -806 -382 -126 -78 -289 -152 -412 -187 -28 -8 -109 -13 -220 -13 -163 0 -181 2 -260 27 -268 85 -448 284 -518 573 -22 89 -24 421 -3 535 90 497 433 1129 915 1690 130 151 398 435 410 435 6 0 14 -20 18 -45 114 -630 532 -1119 1173 -1374 253 -100 313 -106 338 -32 16 49 -14 76 -129 114 -488 160 -845 436 -1057 816 -96 173 -187 457 -187 589 0 23 9 22 171 -18z m-8365 -21 c175 -52 441 -263 639 -509 39 -48 91 -113 117 -145 439 -541 757 -1118 883 -1605 90 -346 103 -617 46 -955 -38 -220 -60 -237 -60 -45 0 166 -9 234 -55 435 -43 183 -119 387 -224 595 -121 242 -192 332 -241 306 -44 -24 -39 -53 32 -166 60 -95 175 -331 223 -456 150 -395 189 -806 115 -1205 -16 -82 -41 -66 -41 25 0 105 -69 403 -137 591 -178 497 -529 948 -998 1282 -174 125 -191 133 -221 119 -55 -24 -39 -78 35 -123 148 -89 432 -335 577 -499 335 -379 495 -701 609 -1229 33 -152 61 -449 47 -489 -8 -22 -394 4 -543 38 -24 5 -73 15 -109 22 -184 35 -386 96 -574 173 -587 243 -942 618 -1027 1085 -37 203 -22 573 35 836 50 231 56 268 56 364 0 56 -7 133 -17 177 -9 44 -17 122 -17 174 -1 115 4 127 158 345 133 187 165 253 217 441 81 291 89 312 137 366 83 92 163 104 338 52z m16286 -1 c94 -44 249 -193 230 -220 -95 -135 -135 -324 -107 -505 22 -146 38 -188 155 -423 107 -212 129 -283 130 -401 0 -211 -109 -388 -257 -415 -91 -17 -193 40 -378 211 -279 259 -442 305 -655 188 -319 -177 -514 -552 -599 -1153 -83 -579 -81 -570 -129 -745 -47 -169 -118 -318 -204 -428 -20 -26 -51 -68 -69 -94 -18 -27 -38 -48 -45 -48 -37 0 -42 766 -7 1025 24 168 62 372 87 465 9 30 18 66 22 80 14 54 84 287 99 329 17 50 13 76 -16 92 -43 22 -71 -6 -105 -108 -20 -60 -63 -198 -74 -238 -4 -16 -17 -64 -28 -105 -32 -116 -62 -267 -73 -358 -5 -46 -11 -87 -14 -92 -16 -26 -35 -377 -35 -643 0 -216 -3 -298 -11 -295 -18 6 -130 320 -155 432 -124 570 9 1180 402 1833 237 395 852 1162 1105 1379 278 238 545 325 731 237z m-16872 -235 c0 -21 -52 -192 -81 -268 -49 -125 -47 -123 -185 -126 -210 -3 -439 -79 -583 -191 l-63 -50 -59 24 c-63 25 -213 47 -253 37 -65 -16 -36 21 249 314 161 166 256 225 420 258 82 16 555 19 555 2z m17236 -133 c18 -46 177 -113 334 -141 206 -36 316 -89 426 -205 166 -175 238 -365 284 -739 48 -398 84 -541 166 -659 47 -69 28 -71 -63 -7 -152 107 -219 198 -283 381 -98 284 -239 435 -438 465 -65 10 -83 9 -245 -13 -13 -1 -24 12 -40 48 -12 28 -53 107 -90 177 -119 223 -159 397 -128 561 19 104 61 175 77 132z m-17456 -375 c0 -6 -25 -43 -55 -83 -46 -59 -130 -206 -146 -255 -3 -8 -32 -14 -79 -16 -149 -7 -251 -76 -358 -241 -86 -133 -129 -185 -153 -185 -17 0 -19 5 -15 33 3 17 8 60 11 93 24 249 180 482 387 578 141 64 408 114 408 76z m18754 -207 c405 -137 495 -242 525 -613 11 -132 32 -196 130 -390 96 -191 116 -268 108 -408 -7 -132 -51 -243 -146 -375 -39 -54 -56 -59 -66 -19 -9 38 -66 147 -131 253 l-56 90 26 140 c30 161 33 262 11 368 -50 238 -194 399 -425 476 -66 22 -90 46 -90 89 0 90 -64 356 -104 434 -19 38 -11 45 27 26 16 -9 102 -40 191 -71z m-19571 1 c35 -8 34 -20 -7 -102 -18 -37 -43 -97 -55 -134 -24 -72 -31 -78 -126 -94 -51 -9 -144 -55 -189 -95 -74 -64 -130 -239 -106 -327 l11 -42 -56 -56 c-38 -39 -69 -85 -97 -142 l-41 -85 -1 -136 c0 -167 27 -254 110 -358 45 -56 44 -59 -32 -94 -161 -72 -293 -98 -403 -79 -98 16 -96 14 -83 109 11 79 31 137 132 381 65 158 114 346 135 525 42 348 75 445 195 564 98 97 194 143 360 175 30 6 214 -2 253 -10z m606 -306 c19 -53 45 -230 45 -313 0 -65 -9 -132 -33 -240 -18 -82 -40 -203 -50 -267 -9 -65 -21 -122 -26 -127 -6 -6 -32 -6 -65 0 -320 55 -535 -5 -791 -220 -84 -71 -90 -72 -123 -28 -122 160 -131 393 -19 517 62 69 106 93 282 150 85 27 179 65 214 86 85 51 202 173 260 272 73 123 152 176 285 191 7 0 16 -9 21 -21z m-708 -229 c-2 -57 -7 -109 -12 -115 -15 -18 -194 -84 -229 -84 -6 0 -10 24 -10 58 1 69 30 133 81 174 37 30 147 80 164 74 6 -2 9 -43 6 -107z m18854 59 c118 -61 204 -184 260 -373 44 -146 88 -225 174 -314 114 -117 327 -247 436 -266 55 -9 73 -21 138 -93 102 -112 218 -326 256 -472 10 -41 22 -82 26 -91 11 -29 -12 -30 -43 -4 -79 66 -283 122 -402 110 -108 -11 -239 -33 -350 -60 -435 -106 -563 -95 -714 66 -103 109 -153 217 -175 379 -27 197 -32 228 -52 286 -11 33 -34 85 -52 115 l-32 54 80 80 c136 136 193 289 182 487 l-7 108 33 9 c59 19 186 7 242 -21z m831 -159 c227 -107 328 -339 267 -611 -19 -84 -35 -98 -63 -54 -8 13 -49 68 -90 122 -124 163 -176 297 -196 502 -8 84 -9 84 82 41z m-2231 -118 c49 -22 131 -88 251 -200 141 -134 297 -220 398 -221 22 0 41 -12 76 -48 74 -77 98 -148 119 -357 29 -278 149 -495 343 -619 l57 -36 -25 -68 c-212 -570 -751 -966 -1454 -1069 -165 -24 -619 -24 -742 1 -118 23 -318 100 -318 122 0 3 30 38 66 77 183 198 317 490 379 827 15 78 64 412 100 674 44 320 213 682 386 826 142 118 244 143 364 91z m-16915 -644 l85 -13 2 -79 c18 -601 237 -993 742 -1329 118 -78 332 -189 456 -235 44 -16 105 -39 135 -50 126 -49 403 -116 660 -162 53 -9 159 -18 228 -19 72 -1 -177 -96 -338 -129 -25 -5 -90 -19 -145 -31 -163 -37 -528 -35 -720 4 -358 71 -634 195 -882 396 -57 47 -122 100 -145 118 -44 36 -72 40 -100 15 -35 -31 -23 -57 70 -140 317 -289 715 -466 1157 -519 164 -19 412 -17 553 5 255 39 44 -48 -300 -124 -626 -139 -1445 46 -2076 470 -551 369 -1010 920 -1016 1220 -2 79 32 119 93 111 133 -18 217 -18 326 2 210 39 321 95 553 280 172 137 292 196 427 211 113 12 139 12 235 -2z m19305 -752 c89 -24 192 -83 264 -152 l64 -61 -5 -52 c-19 -192 -374 -646 -729 -931 -187 -150 -511 -334 -754 -427 -600 -230 -1154 -237 -1768 -20 -136 48 -116 66 35 31 108 -24 493 -24 643 1 280 45 543 131 765 248 159 84 177 103 144 153 -23 36 -43 32 -158 -29 -331 -177 -720 -278 -1071 -278 -153 0 -212 6 -355 36 -189 40 -220 49 -232 63 -12 15 -1 16 122 9 189 -10 462 20 682 75 389 97 791 331 1026 598 153 174 283 416 308 570 4 23 11 41 16 41 197 0 275 11 553 77 282 67 349 74 450 48z m-7170 -284 c3 -5 -1 -25 -9 -43 -8 -18 -38 -96 -67 -173 -29 -77 -83 -206 -121 -287 -37 -82 -68 -151 -68 -154 0 -12 -195 -394 -253 -494 -134 -233 -382 -590 -541 -778 -39 -47 -165 -193 -281 -326 -282 -324 -303 -349 -368 -438 -78 -105 -98 -112 -62 -21 8 21 25 81 39 133 79 299 222 648 389 950 132 236 327 518 510 735 113 135 121 154 86 199 -26 33 -65 34 -100 3 -115 -97 -487 -617 -632 -882 -107 -196 -259 -544 -288 -660 -12 -49 -28 -71 -40 -57 -11 11 10 379 27 477 91 526 291 875 704 1226 234 200 578 401 945 555 109 45 121 49 130 35z m-4339 -1909 c284 -151 465 -277 759 -528 536 -459 917 -1041 1096 -1679 43 -155 89 -369 109 -510 11 -82 23 -158 25 -169 26 -115 49 -479 49 -776 1 -307 -1 -334 -27 -495 -36 -224 -53 -337 -62 -408 -9 -81 -28 -69 -37 24 -19 199 -28 285 -47 414 -12 77 -28 190 -36 250 -18 126 -22 147 -71 385 -208 1014 -593 1906 -1167 2705 -180 251 -524 650 -672 780 -61 53 -77 75 -56 75 5 0 67 -31 137 -68z m17 -327 c268 -287 582 -715 803 -1091 81 -139 285 -537 314 -614 7 -19 32 -80 56 -135 95 -221 230 -609 289 -830 65 -243 108 -423 135 -565 17 -91 35 -185 40 -210 35 -181 71 -423 85 -575 4 -38 13 -135 21 -214 20 -190 6 -209 -50 -66 -29 75 -125 260 -239 465 -81 145 -337 648 -389 765 -30 65 -138 336 -202 505 -8 19 -25 64 -40 100 -14 36 -37 99 -52 140 -14 41 -54 154 -89 250 -127 352 -155 430 -155 435 0 8 -83 238 -171 470 -230 612 -475 1173 -600 1370 -86 137 -18 81 244 -200z m-8958 190 c138 -8 302 -21 365 -29 63 -9 167 -22 231 -30 684 -87 1355 -329 1868 -674 545 -366 962 -929 1205 -1630 19 -53 39 -109 45 -124 17 -45 -4 -42 -60 8 -29 26 -120 97 -203 158 -682 505 -1586 1038 -2466 1453 -52 25 -133 63 -180 85 -96 46 -370 167 -595 265 -400 173 -1144 448 -1299 480 -63 14 -57 33 11 34 32 1 105 5 163 9 189 12 660 10 915 -5z m-968 -236 c26 -12 62 -25 78 -29 132 -35 776 -283 1050 -405 17 -7 93 -40 170 -73 572 -244 1386 -659 1943 -989 406 -241 907 -583 1228 -839 76 -61 151 -119 167 -128 15 -10 27 -25 27 -32 0 -9 -11 -14 -27 -14 -16 0 -62 -7 -104 -14 -303 -59 -806 -78 -1084 -43 -450 58 -834 207 -1192 465 -182 130 -336 274 -878 818 -297 298 -576 573 -621 610 -45 38 -142 123 -216 189 -205 183 -433 367 -560 454 -75 50 -64 66 19 30z m21572 -378 c-18 -14 -61 -46 -95 -71 -34 -25 -158 -117 -275 -206 -687 -516 -1302 -879 -2119 -1251 -36 -17 -76 -34 -90 -38 -14 -4 -57 -22 -96 -40 -68 -32 -101 -44 -314 -122 -268 -98 -546 -187 -780 -249 -30 -8 -79 -21 -107 -29 -132 -37 -162 -45 -220 -56 -74 -15 -79 -12 -59 32 8 19 32 77 52 129 230 595 597 1078 996 1311 146 86 383 187 507 219 20 5 61 16 91 24 140 40 339 67 600 81 398 22 812 53 930 71 58 8 150 22 205 29 109 15 310 56 390 78 28 8 75 22 105 30 101 28 215 69 260 93 58 31 71 6 19 -35z m231 -38 c0 -4 -9 -16 -19 -27 -11 -12 -71 -100 -134 -196 -64 -96 -137 -206 -164 -245 -27 -38 -83 -119 -124 -179 -649 -948 -1184 -1429 -1833 -1651 -515 -176 -1175 -150 -1891 74 -16 6 -47 13 -68 17 -44 7 -49 37 -7 42 109 14 573 146 880 251 805 274 1604 682 2460 1256 222 149 649 469 805 604 64 54 95 72 95 54z m-13794 -226 c429 -439 697 -809 919 -1272 231 -480 316 -799 331 -1245 18 -509 -116 -907 -418 -1242 -84 -94 -98 -97 -98 -26 0 29 -4 88 -10 132 -34 275 -65 504 -86 616 -37 205 -54 301 -68 390 -9 52 -27 154 -41 225 -44 237 -54 299 -66 390 -6 50 -19 153 -29 230 -11 77 -22 178 -26 225 -7 98 -27 130 -78 130 -50 0 -76 -34 -76 -99 0 -62 24 -321 41 -446 18 -136 60 -408 69 -455 5 -25 16 -83 24 -130 24 -135 63 -364 87 -500 11 -69 27 -160 35 -202 16 -93 40 -301 49 -423 4 -49 9 -102 12 -117 10 -48 -18 -33 -138 76 -318 289 -515 597 -612 959 -114 421 -116 705 -12 1402 74 492 90 807 60 1160 -15 181 -30 308 -41 350 -13 51 24 24 172 -128z m6054 -1624 c0 -4 -17 -34 -39 -67 -78 -124 -191 -332 -468 -861 -107 -205 -600 -1197 -638 -1285 -18 -41 -90 -194 -159 -339 -69 -144 -126 -265 -126 -267 0 -2 -61 -142 -136 -311 -75 -170 -159 -360 -186 -423 -27 -63 -62 -144 -78 -180 -16 -36 -36 -83 -43 -105 -15 -40 -221 -541 -257 -625 -37 -84 -280 -744 -402 -1093 -29 -81 -45 -61 -25 30 9 37 30 156 47 263 32 198 109 600 135 700 8 30 38 150 66 265 126 518 313 1099 495 1535 68 164 87 206 149 340 35 74 77 167 95 205 195 426 578 1046 934 1515 249 328 636 756 636 703z m-40 -460 c-42 -121 -98 -336 -240 -923 -45 -184 -97 -393 -117 -465 -19 -71 -41 -157 -49 -190 -64 -266 -275 -895 -400 -1195 -82 -197 -306 -652 -373 -759 -26 -42 -85 -137 -131 -211 -157 -255 -243 -371 -778 -1059 -46 -58 -119 -164 -164 -234 -113 -178 -127 -179 -59 -3 22 55 74 193 116 306 42 113 90 239 106 280 16 41 29 79 29 83 0 18 271 693 382 952 33 77 71 167 83 200 12 33 50 122 84 198 33 76 61 140 61 142 0 2 16 39 36 82 76 163 174 382 174 387 0 5 99 220 260 566 165 357 491 1002 787 1560 75 140 151 284 169 319 70 132 78 119 24 -36z m-11135 -1729 c91 -79 334 -223 580 -343 169 -83 704 -321 721 -321 24 0 534 -260 642 -327 431 -268 681 -494 981 -887 212 -276 388 -693 451 -1066 6 -36 17 -96 25 -135 33 -175 29 -220 -18 -177 -18 16 -63 44 -197 123 -101 60 -473 302 -650 424 -1048 721 -1872 1580 -2523 2630 -21 33 -45 70 -53 83 -23 32 2 30 41 -4z m-140 -141 c58 -97 310 -480 369 -560 17 -23 53 -73 80 -110 325 -449 821 -973 1381 -1459 280 -244 778 -605 1175 -853 47 -29 146 -91 220 -138 74 -47 156 -96 183 -110 89 -47 78 -50 -223 -52 -1088 -10 -1881 400 -2455 1268 -282 426 -475 871 -667 1536 -45 156 -44 155 -86 350 -17 77 -35 153 -41 168 -36 92 -2 71 64 -40z m16573 5 c-24 -37 -85 -136 -137 -220 -52 -84 -137 -213 -190 -287 -53 -73 -121 -168 -151 -210 -339 -472 -972 -1120 -1510 -1547 -425 -338 -849 -625 -1422 -963 -36 -21 -42 -12 -30 51 6 29 16 91 22 138 61 459 238 891 513 1255 338 447 775 775 1452 1090 191 89 227 105 355 160 364 155 493 218 745 363 147 85 279 171 345 227 60 50 63 28 8 -57z m202 -7 c0 -5 -9 -37 -19 -72 -11 -35 -25 -91 -31 -124 -29 -149 -43 -207 -74 -315 -18 -63 -46 -160 -61 -215 -70 -247 -256 -714 -345 -865 -15 -25 -55 -97 -90 -160 -319 -581 -724 -987 -1245 -1248 -370 -185 -631 -264 -1021 -307 -152 -17 -542 -37 -556 -29 -13 8 -9 34 5 34 79 0 1071 672 1392 942 50 42 126 107 170 143 444 371 976 933 1329 1405 188 251 484 714 510 798 7 21 36 32 36 13z m-9712 -3751 c553 -97 978 -376 1178 -772 101 -200 122 -321 98 -562 -9 -88 -19 -207 -23 -264 -7 -121 -19 -128 -44 -23 -73 309 -288 751 -455 932 -58 62 -68 69 -102 69 -40 0 -70 -26 -70 -59 0 -8 33 -65 74 -125 278 -419 387 -689 466 -1156 11 -69 27 -165 36 -215 16 -97 32 -591 20 -639 -12 -50 -29 -21 -46 80 -50 291 -195 772 -334 1109 -277 666 -524 1112 -819 1478 -70 86 -127 159 -127 162 0 9 31 6 148 -15z m7012 -720 c32 -58 36 -283 6 -385 -131 -446 -589 -797 -1266 -971 -133 -34 -305 -58 -374 -52 l-35 3 34 84 c94 233 364 510 629 647 113 57 126 69 126 110 0 46 -41 78 -89 69 -158 -30 -497 -279 -628 -462 -43 -60 -63 -77 -63 -51 0 7 27 66 60 133 161 327 429 532 905 691 94 31 244 88 335 126 308 130 319 132 360 58z m-11348 -1 c27 -10 76 -33 110 -50 77 -39 248 -106 446 -175 441 -154 735 -385 868 -682 19 -42 39 -85 44 -94 30 -54 -11 -50 -48 5 -83 120 -329 322 -491 403 -115 58 -153 65 -186 34 -48 -45 -29 -92 48 -124 123 -50 377 -250 497 -391 83 -96 210 -319 210 -367 0 -26 -356 34 -547 92 -350 106 -618 252 -831 456 -208 197 -298 386 -309 651 -11 248 32 303 189 242z m-358 -145 c7 -19 8 -112 0 -139 -3 -13 -32 -33 -76 -55 -287 -141 -481 -401 -504 -674 -7 -79 19 -273 42 -318 23 -44 -1 -43 -69 1 -118 77 -247 227 -247 288 0 13 27 52 64 95 139 159 166 225 166 400 0 160 43 224 208 311 170 89 398 139 416 91z m11990 -58 c212 -111 317 -208 443 -412 149 -239 252 -375 370 -484 182 -169 273 -262 273 -278 0 -29 -35 -56 -157 -120 -194 -103 -349 -227 -416 -334 -25 -40 -28 -37 -69 55 -79 174 -81 186 -37 336 84 283 99 424 63 570 -59 235 -263 469 -515 591 -42 21 -47 27 -52 63 -9 69 -11 69 97 13z m-31 -270 c46 -30 119 -92 163 -138 198 -207 240 -406 145 -696 -61 -189 -65 -207 -65 -287 0 -78 1 -83 68 -220 117 -240 126 -278 84 -361 -25 -52 -70 -84 -158 -116 -102 -36 -454 -34 -620 5 -272 62 -573 204 -835 392 -139 100 -368 251 -424 279 -101 52 -35 53 279 6 185 -27 545 -70 800 -95 49 -5 116 7 133 24 15 15 13 70 -4 86 -19 20 -119 45 -174 45 -24 0 -66 4 -92 10 -46 9 -324 45 -465 59 -107 11 -105 25 9 65 118 41 345 156 463 233 304 200 507 447 575 696 10 37 22 67 27 67 5 0 46 -24 91 -54z m-11914 -46 c33 -129 143 -311 265 -439 183 -191 523 -409 751 -481 130 -41 141 -51 68 -65 -21 -4 -65 -15 -98 -26 -33 -10 -118 -37 -190 -59 -473 -149 -778 -156 -1040 -22 -116 59 -121 67 -168 247 -54 212 -59 387 -14 495 58 136 155 248 297 343 105 71 113 71 129 7z m-753 -932 c15 -13 71 -52 123 -88 124 -86 122 -79 74 -186 -84 -186 -98 -244 -98 -394 0 -150 7 -173 78 -256 102 -118 346 -172 652 -145 418 38 702 158 1215 516 300 210 538 344 516 293 -2 -7 -14 -44 -26 -83 -28 -89 -105 -243 -174 -348 -270 -410 -922 -690 -1541 -663 -82 4 -203 1 -290 -6 -83 -6 -166 -12 -185 -12 l-35 -1 -6 55 c-8 61 -52 194 -94 284 -60 123 -183 227 -404 338 -217 110 -324 205 -307 273 6 23 87 105 201 202 39 33 113 101 165 151 108 104 99 99 136 70z m2371 -145 c3 -7 -23 -26 -58 -44 -94 -47 -225 -130 -351 -222 -301 -220 -517 -338 -758 -416 -373 -119 -769 -118 -896 3 -67 65 -79 159 -38 280 29 85 108 266 116 266 5 0 25 -11 46 -24 41 -28 144 -66 242 -91 54 -14 102 -16 290 -12 255 5 315 16 648 118 362 111 480 140 607 148 143 10 147 9 152 -6z m8427 -78 c18 -14 37 -25 43 -25 5 0 57 -28 114 -63 98 -60 166 -105 389 -259 410 -283 770 -429 1133 -459 137 -11 332 -3 395 16 27 9 31 -15 5 -36 -9 -8 -52 -58 -95 -112 -50 -61 -101 -112 -136 -135 -55 -37 -56 -37 -151 -34 -235 6 -545 58 -756 127 -519 170 -825 461 -974 926 -30 92 -26 99 33 54z m-2409 -2256 c177 -33 250 -147 320 -499 35 -178 55 -259 66 -266 10 -6 13 -44 3 -44 -3 0 -15 5 -26 11 -31 17 -184 39 -268 39 -186 -1 -421 -60 -815 -205 -124 -45 -323 -94 -401 -97 l-58 -3 -12 120 c-12 119 -42 225 -81 285 -16 24 -16 25 63 97 283 262 730 499 1054 558 96 17 87 17 155 4z m-3014 -53 c234 -69 571 -236 764 -379 227 -168 284 -226 240 -243 -47 -19 -96 -158 -104 -299 l-6 -110 -44 2 c-62 3 -231 47 -400 104 -554 189 -753 225 -992 180 -52 -10 -101 -21 -107 -25 -28 -17 -31 8 -6 56 15 30 38 110 55 194 42 209 65 296 95 361 36 76 119 158 182 178 68 22 214 13 323 -19z m1594 -689 c42 -42 54 -84 66 -237 23 -275 11 -315 -104 -370 -134 -64 -398 -39 -452 43 -52 80 -68 360 -26 454 13 29 40 68 61 87 l38 34 99 -5 c65 -3 122 1 168 10 104 22 113 21 150 -16z m1675 -192 c345 -80 394 -157 357 -563 -9 -100 -23 -197 -31 -217 -38 -89 -228 -113 -561 -69 -98 13 -150 23 -325 66 -170 41 -491 164 -745 287 -162 78 -169 84 -153 132 20 64 20 63 122 76 126 16 287 60 516 140 284 100 371 124 560 152 88 14 190 12 260 -4z m-3346 -49 c54 -14 207 -61 340 -105 368 -121 522 -161 627 -161 23 0 29 -6 43 -47 9 -26 16 -53 16 -60 0 -23 -359 -187 -664 -303 -321 -121 -756 -193 -955 -157 -102 18 -150 37 -169 67 -33 53 -62 363 -48 512 12 122 65 182 216 242 136 54 406 60 594 12z m1977 -592 c111 -52 240 -111 288 -131 106 -43 112 -49 220 -203 48 -69 132 -188 187 -265 393 -548 564 -790 564 -800 0 -3 -23 -48 -51 -98 -29 -51 -74 -135 -102 -187 -27 -52 -91 -171 -143 -265 -51 -93 -110 -203 -131 -244 -41 -78 -59 -95 -70 -64 -16 44 -99 225 -197 426 -58 121 -106 220 -106 222 0 1 -40 86 -90 189 -49 102 -90 188 -90 191 0 3 -35 78 -79 167 -137 284 -341 717 -422 897 -44 96 -84 180 -90 187 -17 21 -6 35 41 54 63 25 49 29 271 -76z m-788 62 c26 -10 47 -23 47 -27 0 -12 -159 -354 -370 -794 -29 -60 -85 -180 -125 -265 -88 -189 -293 -616 -460 -960 -68 -140 -126 -265 -130 -277 -10 -37 -28 -26 -53 31 -13 30 -54 110 -91 178 -167 306 -252 466 -313 585 l-32 62 46 68 c26 37 107 154 182 258 74 105 187 264 250 355 63 91 149 212 191 270 41 58 97 136 122 173 50 74 82 95 213 144 68 26 411 187 445 210 11 7 22 12 25 11 3 -2 26 -11 53 -22z"/></g></g></svg>